<?xml version="1.0" encoding="UTF-8"?>
<svg width="17px" height="15px" viewBox="0 0 17 15" version="1.1" xmlns="http://www.w3.org/2000/svg" xmlns:xlink="http://www.w3.org/1999/xlink">
    <!-- Generator: Sketch 49.1 (51147) - http://www.bohemiancoding.com/sketch -->
    <title>Page 1</title>
    <desc>Created with Sketch.</desc>
    <defs></defs>
    <g id="Hi-Fi" stroke="none" stroke-width="1" fill="none" fill-rule="evenodd" stroke-linecap="round" stroke-linejoin="round">
        <g id="Admin" transform="translate(-252.000000, -184.000000)">
            <g id="Page-1" transform="translate(252.763672, 184.000000)">
                <path d="M5.8326,0.5001 C7.3056,0.5001 8.4996,1.6941 8.4996,3.1671 C8.4996,4.6391 7.3056,5.8331 5.8326,5.8331 C4.3596,5.8331 3.1656,4.6391 3.1656,3.1671 C3.1656,1.6941 4.3596,0.5001 5.8326,0.5001 Z" id="Stroke-1" stroke="#EE8522"></path>
                <path d="M8.6427,8.0865 C7.8267,7.5795 6.8637,7.2875 5.8327,7.2875 C2.8877,7.2875 0.4997,9.6745 0.4997,12.6195 L8.5767,12.6195" id="Stroke-3" stroke="#EE8522"></path>
                <path d="M14.8322,10.2784 C14.8322,12.1784 13.2912,13.7184 11.3922,13.7184 C9.4922,13.7184 7.9522,12.1784 7.9522,10.2784 C7.9522,8.3784 9.4922,6.8384 11.3922,6.8384 C13.2912,6.8384 14.8322,8.3784 14.8322,10.2784 Z" id="Stroke-5" stroke="#0F62AE"></path>
                <path d="M11.3917,8.7335 L11.3917,11.8225" id="Stroke-7" stroke="#0F62AE"></path>
                <path d="M12.9366,10.2784 L9.8466,10.2784" id="Stroke-9" stroke="#0F62AE"></path>
            </g>
        </g>
    </g>
</svg>