<?xml version="1.0" encoding="UTF-8"?>
<svg width="17px" height="12px" viewBox="0 0 17 12" version="1.1" xmlns="http://www.w3.org/2000/svg" xmlns:xlink="http://www.w3.org/1999/xlink">
    <!-- Generator: Sketch 49.1 (51147) - http://www.bohemiancoding.com/sketch -->
    <title>Page 1</title>
    <desc>Created with Sketch.</desc>
    <defs></defs>
    <g id="Hi-Fi" stroke="none" stroke-width="1" fill="none" fill-rule="evenodd">
        <g id="Timeline" transform="translate(-25.000000, -210.000000)">
            <g id="Page-1" transform="translate(26.000000, 211.030762)">
                <path d="M10.9733011,0.396513507 C12.1418973,0.396513507 13.0891504,1.34376666 13.0891504,2.51236289 C13.0891504,3.68016578 12.1418973,4.62741893 10.9733011,4.62741893 C9.80470483,4.62741893 8.85745168,3.68016578 8.85745168,2.51236289 C8.85745168,1.34376666 9.80470483,0.396513507 10.9733011,0.396513507 Z" id="Stroke-1" stroke="#0F62AE"></path>
                <path d="M8.89307284,10.0119264 L15.2041271,10.0119264 C15.2041271,7.67552726 13.3096208,5.78102095 10.9732217,5.78102095 C9.72291103,5.78102095 8.59953543,6.32366849 7.82523134,7.18524045" id="Stroke-3" stroke="#0F62AE"></path>
                <path d="M4.6273396,0.396513507 C5.79593582,0.396513507 6.74318898,1.34376666 6.74318898,2.51236289 C6.74318898,3.68016578 5.79593582,4.62741893 4.6273396,4.62741893 C3.45874337,4.62741893 2.51149021,3.68016578 2.51149021,2.51236289 C2.51149021,1.34376666 3.45874337,0.396513507 4.6273396,0.396513507 Z" id="Stroke-5" stroke="#EE8522"></path>
                <path d="M4.6273396,5.78102095 C2.29094048,5.78102095 0.396434172,7.67552726 0.396434172,10.0119264 L8.85824502,10.0119264 C8.85824502,7.67552726 6.96373871,5.78102095 4.6273396,5.78102095 Z" id="Stroke-7" stroke="#EE8522"></path>
            </g>
        </g>
    </g>
</svg>