<?xml version="1.0" encoding="UTF-8"?>
<svg width="108px" height="90px" viewBox="0 0 108 90" version="1.1" xmlns="http://www.w3.org/2000/svg" xmlns:xlink="http://www.w3.org/1999/xlink">
    <!-- Generator: Sketch 49.1 (51147) - http://www.bohemiancoding.com/sketch -->
    <title>Page 1</title>
    <desc>Created with Sketch.</desc>
    <defs></defs>
    <g id="Hi-Fi" stroke="none" stroke-width="1" fill="none" fill-rule="evenodd">
        <g id="Admin---Remove-02" transform="translate(-538.000000, -234.000000)">
            <g id="Page-1" transform="translate(540.500000, 236.000000)">
                <path d="M34.9365,0.0005 C44.5835,0.0005 52.4045,7.8205 52.4045,17.4685 C52.4045,27.1155 44.5835,34.9375 34.9365,34.9375 C25.2895,34.9375 17.4685,27.1155 17.4685,17.4685 C17.4685,7.8205 25.2895,0.0005 34.9365,0.0005 Z" id="Stroke-1" stroke="#E7EAF3" stroke-width="4" stroke-linecap="round" stroke-linejoin="round"></path>
                <path d="M53.3457,49.7026 C48.0007,46.3826 41.6927,44.4646 34.9367,44.4646 C15.6417,44.4646 -0.0003,60.1056 -0.0003,79.4006 L65.3337,79.4006" id="Stroke-3" stroke="#E7EAF3" stroke-width="4" stroke-linecap="round" stroke-linejoin="round"></path>
                <path d="M102.916,58.2554 C102.916,73.1084 90.876,85.1484 76.024,85.1484 C61.172,85.1484 49.132,73.1084 49.132,58.2554 C49.132,43.4034 61.172,31.3634 76.024,31.3634 C90.876,31.3634 102.916,43.4034 102.916,58.2554" id="Fill-5" fill="#FFFFFF"></path>
                <path d="M102.916,58.2554 C102.916,73.1084 90.876,85.1484 76.024,85.1484 C61.172,85.1484 49.132,73.1084 49.132,58.2554 C49.132,43.4034 61.172,31.3634 76.024,31.3634 C90.876,31.3634 102.916,43.4034 102.916,58.2554 Z" id="Stroke-7" stroke="#3C763D" stroke-width="4" stroke-linecap="round" stroke-linejoin="round"></path>
                <polyline id="Stroke-9" stroke="#3C763D" stroke-width="4" stroke-linecap="round" stroke-linejoin="round" points="66.5176 60.9907 72.0836 66.5557 88.6846 49.9557"></polyline>
            </g>
        </g>
    </g>
</svg>