<?xml version="1.0" encoding="UTF-8"?>
<svg width="19px" height="13px" viewBox="0 0 19 13" version="1.1" xmlns="http://www.w3.org/2000/svg" xmlns:xlink="http://www.w3.org/1999/xlink">
    <!-- Generator: Sketch 49.1 (51147) - http://www.bohemiancoding.com/sketch -->
    <title>asset</title>
    <desc>Created with Sketch.</desc>
    <defs></defs>
    <g id="Hi-Fi" stroke="none" stroke-width="1" fill="none" fill-rule="evenodd" stroke-linecap="round" stroke-linejoin="round">
        <g id="Timeline" transform="translate(-848.000000, -43.000000)">
            <g id="asset" transform="translate(848.198486, 43.105225)">
                <path d="M0.392133804,6.32473878 C0.392133804,5.6922649 2.52357077,5.1862858 5.15466211,5.1862858 C6.21580856,5.17108415 7.2756518,5.26647004 8.3170315,5.47089905" id="Shape" stroke="#0F62AE"></path>
                <path d="M8.31070676,7.16592904 C7.26932706,7.37035804 6.20948382,7.46574394 5.14833737,7.45054228 C2.52989551,7.45054228 0.392133804,6.95721266 0.392133804,6.32473878" id="Shape" stroke="#0F62AE"></path>
                <path d="M8.31070676,9.442835 C7.26932706,9.647264 6.20948382,9.7426499 5.14833737,9.72744824 C2.51724603,9.72744824 0.385809066,9.22146914 0.385809066,8.58899526" id="Shape" stroke="#0F62AE"></path>
                <path d="M9.08232489,11.5110246 C7.80820615,11.8858719 6.48190544,12.0524604 5.15466211,12.0043542 C2.52357077,12.0043542 0.392133804,11.4983751 0.392133804,10.8659012" id="Shape" stroke="#0F62AE"></path>
                <path d="M0.392133804,6.3120893 L0.392133804,10.8659012" id="Shape" stroke="#0F62AE"></path>
                <path d="M17.8737118,4.03518334 C17.8737118,4.66765722 15.7422748,5.17363632 13.1111835,5.17363632 C10.4800922,5.17363632 8.34233045,4.66765722 8.34233045,4.03518334" id="Shape" stroke="#EE8522"></path>
                <path d="M8.34233045,1.75827738 C8.34233045,1.1258035 10.4800922,0.619824401 13.1111835,0.619824401 C15.7422748,0.619824401 17.8737118,1.13212824 17.8737118,1.75827738" id="Shape" stroke="#EE8522"></path>
                <path d="M17.8737118,1.75827738 C17.8737118,2.39075126 15.7422748,2.89673036 13.1111835,2.89673036 C10.4800922,2.89673036 8.34233045,2.39075126 8.34233045,1.75827738" id="Shape" stroke="#EE8522"></path>
                <path d="M17.8737118,6.32473878 C17.8737118,6.95721266 15.7422748,7.46319176 13.1111835,7.46319176 C10.4800922,7.46319176 8.34233045,6.95721266 8.34233045,6.32473878" id="Shape" stroke="#EE8522"></path>
                <path d="M17.8737118,8.58899526 C17.8737118,9.22146914 15.7422748,9.72744824 13.1111835,9.72744824 C10.4800922,9.72744824 8.34233045,9.22146914 8.34233045,8.58899526" id="Shape" stroke="#EE8522"></path>
                <path d="M17.8737118,10.8659012 C17.8737118,11.4983751 15.7422748,12.0043542 13.1111835,12.0043542 C10.4800922,12.0043542 8.34233045,11.4983751 8.34233045,10.8659012" id="Shape" stroke="#EE8522"></path>
                <path d="M17.8737118,1.76460212 L17.8737118,10.872226" id="Shape" stroke="#EE8522"></path>
                <path d="M8.34233045,1.75827738 L8.34233045,10.8659012" id="Shape" stroke="#EE8522"></path>
            </g>
        </g>
    </g>
</svg>