<?xml version="1.0" encoding="UTF-8"?>
<svg width="17px" height="18px" viewBox="0 0 17 18" version="1.1" xmlns="http://www.w3.org/2000/svg" xmlns:xlink="http://www.w3.org/1999/xlink">
    <!-- Generator: Sketch 49.1 (51147) - http://www.bohemiancoding.com/sketch -->
    <title>Page 1</title>
    <desc>Created with Sketch.</desc>
    <defs></defs>
    <g id="Hi-Fi" stroke="none" stroke-width="1" fill="none" fill-rule="evenodd" stroke-linecap="round" stroke-linejoin="round">
        <g id="Timeline" transform="translate(-26.000000, -512.000000)">
            <g id="Page-1" transform="translate(27.000000, 512.810181)">
                <path d="M2.0884,5.5174 C2.1204,5.0464 2.3944,4.6054 2.8474,4.3804 L10.3724,0.6434 C11.0504,0.3064 11.8734,0.5834 12.2104,1.2624 L12.7344,2.3174" id="Stroke-1" stroke="#EE8522"></path>
                <path d="M13.2241,9.2024 C13.2241,9.8514 12.6981,10.3784 12.0481,10.3784 C11.3991,10.3784 10.8721,9.8514 10.8721,9.2024 C10.8721,8.5534 11.3991,8.0264 12.0481,8.0264 C12.6981,8.0264 13.2241,8.5534 13.2241,9.2024 Z" id="Stroke-3" stroke="#0F62AE"></path>
                <path d="M5.75,13.6853 L5.75,12.0183 C5.75,11.4183 5.263,10.9313 4.663,10.9313 L2.516,10.9313" id="Stroke-5" stroke="#0F62AE"></path>
                <path d="M2.4746,10.9314 L3.3526,10.0534" id="Stroke-7" stroke="#0F62AE"></path>
                <path d="M2.4746,10.9314 L3.3526,11.8094" id="Stroke-9" stroke="#0F62AE"></path>
                <path d="M1.9941,8.4549 L1.9941,5.7809 C1.9941,4.9039 2.7051,4.1929 3.5821,4.1929 L13.1871,4.1929 C14.0651,4.1929 14.7771,4.9049 14.7771,5.7829 L14.7771,12.6239 C14.7771,13.5009 14.0661,14.2119 13.1891,14.2119 L7.8801,14.2119" id="Stroke-11" stroke="#EE8522"></path>
                <path d="M8.3857,11.7708 C8.3857,13.9478 6.6197,15.7138 4.4427,15.7138 C2.2647,15.7138 0.4997,13.9478 0.4997,11.7708 C0.4997,9.5928 2.2647,7.8278 4.4427,7.8278 C6.6197,7.8278 8.3857,9.5928 8.3857,11.7708 Z" id="Stroke-13" stroke="#0F62AE"></path>
            </g>
        </g>
    </g>
</svg>