<?xml version="1.0" encoding="UTF-8"?>
<svg width="23px" height="17px" viewBox="0 0 23 17" version="1.1" xmlns="http://www.w3.org/2000/svg" xmlns:xlink="http://www.w3.org/1999/xlink">
    <!-- Generator: Sketch 46.2 (44496) - http://www.bohemiancoding.com/sketch -->
    <title>Group 4</title>
    <desc>Created with Sketch.</desc>
    <defs></defs>
    <g id="Hi-fi" stroke="none" stroke-width="1" fill="none" fill-rule="evenodd">
        <g id="2.1-Dashboard-Non-Multi-Sig" transform="translate(-1365.000000, -169.000000)" fill="#A4A4A4">
            <g id="Group-11" transform="translate(-13.000000, 0.000000)">
                <g id="Group-4" transform="translate(1378.000000, 164.000000)">
                    <path d="M11.625,5.125 C15.8229377,5.125 19.4452973,6.54686078 22.4921875,9.390625 L23,9.8984375 L22.4921875,10.3554688 L20.359375,12.4882812 L19.9023438,12.03125 C17.5663946,9.8645725 14.8073076,8.78125 11.625,8.78125 C8.44269242,8.78125 5.68360543,9.8645725 3.34765625,12.03125 L2.890625,12.4882812 L0.7578125,10.3554688 L0.25,9.8984375 L0.7578125,9.390625 C3.80470273,6.54686078 7.42706234,5.125 11.625,5.125 Z M18.7851562,13.25 L19.34375,13.7578125 L18.8359375,14.265625 L17.1601562,15.890625 L16.703125,16.3476562 L16.1953125,15.9414062 C14.8411391,14.7565045 13.3177168,14.1640625 11.625,14.1640625 C9.9322832,14.1640625 8.40886094,14.7565045 7.0546875,15.9414062 L6.546875,16.3476562 L6.08984375,15.890625 L4.4140625,14.265625 L3.90625,13.7578125 L4.46484375,13.25 C6.3945409,11.5234289 8.62889355,10.6093755 11.1679688,10.5078125 L11.625,10.5078125 C14.3672012,10.5078125 16.7538961,11.4218659 18.7851562,13.25 Z M11.625,21.375 L8.4765625,18.2265625 L7.91796875,17.71875 L8.52734375,17.2109375 C9.57682816,16.5338508 10.6093699,16.1953125 11.625,16.1953125 C12.8099018,16.1953125 13.8593704,16.5338508 14.7734375,17.2109375 L15.3320312,17.71875 L14.8242188,18.2265625 L12.1328125,20.8671875 L11.625,21.375 Z" id="ion-wifi---Ionicons"></path>
                </g>
            </g>
        </g>
    </g>
</svg>