<?xml version="1.0" encoding="UTF-8"?>
<svg width="23px" height="23px" viewBox="0 0 23 23" version="1.1" xmlns="http://www.w3.org/2000/svg" xmlns:xlink="http://www.w3.org/1999/xlink">
    <!-- Generator: Sketch 45.2 (43514) - http://www.bohemiancoding.com/sketch -->
    <title>credit-card</title>
    <desc>Created with Sketch.</desc>
    <defs></defs>
    <g id="Hi-fi" stroke="none" stroke-width="1" fill="none" fill-rule="evenodd">
        <g id="3.4-Prize-Payout-1024x700" transform="translate(-26.000000, -180.000000)" fill-rule="nonzero" fill="#FFFFFF">
            <g id="Group-11">
                <g id="Group-9" transform="translate(24.000000, 180.000000)">
                    <g id="credit-card" transform="translate(2.000000, 0.000000)">
                        <path d="M22.4164566,17.6021351 C22.4014347,17.5831297 20.9311545,15.6918988 20.4532355,14.1801043 C20.3397309,13.8201532 20.1982462,13.3131982 20.0357883,12.7328131 C19.2583899,9.95317493 18.551494,7.58901632 17.7676166,6.80513888 C16.9182761,5.95579835 13.6356663,5.38909139 12.2863777,5.18727882 L12.2863777,2.04773762 C12.2863297,0.918403149 11.3679746,0 10.2385921,0 L2.04773762,0 C0.918355155,0 0,0.918403149 0,2.04773762 L0,16.381805 C0,17.5111395 0.918355155,18.4294946 2.04773762,18.4294946 L10.2386401,18.4294946 C10.4597941,18.4294946 10.673317,18.3803973 10.8822806,18.3084551 C11.328044,18.7220149 11.8329834,19.0367081 12.3623514,19.3573525 C13.4057296,19.9902904 14.4850548,20.6446815 15.4269268,22.2699805 C15.5184024,22.4279751 15.6873874,22.5249699 15.8698586,22.5249699 C20.7411964,22.5249699 22.4739528,18.1450853 22.4909425,18.1005473 C22.5554457,17.9330981 22.5269376,17.7436199 22.4164566,17.6021351 Z M2.04773762,17.4056498 C1.48333435,17.4056498 1.02389281,16.9462083 1.02389281,16.381805 L1.02389281,2.04773762 C1.02389281,1.48333435 1.48333435,1.02389281 2.04773762,1.02389281 L2.04773762,17.4056498 Z M12.2863297,9.45893811 L13.9086052,10.1081459 C13.9880824,10.3861241 14.1225601,10.8360629 14.2575658,11.1869912 C14.1955582,11.2969922 14.1420935,11.4189437 14.0850772,11.548958 C13.9920659,11.7609452 13.8906077,11.9924177 13.748643,12.1723932 C13.2362646,11.8072109 12.7161113,11.0329801 12.2863297,10.21042 L12.2863297,9.45893811 L12.2863297,9.45893811 Z M4.09542725,17.4056498 L3.07158244,17.4056498 L3.07158244,1.02389281 L4.09542725,1.02389281 L4.09542725,17.4056498 Z M5.11932006,17.4056498 L5.11932006,1.02389281 L10.2386401,1.02389281 C10.8030434,1.02389281 11.2624849,1.48333435 11.2624849,2.04773762 L11.2624849,8.18600716 C10.6235478,7.24845462 9.54633423,6.13985332 8.56985898,5.94120833 C8.07994158,5.83922219 7.64699244,5.96270941 7.31703729,6.29314448 C6.08418089,7.52600089 6.79011692,9.62120406 7.76947179,11.040995 C8.55334922,12.1773366 9.13479018,13.520146 9.21729096,14.3825408 C9.23077713,14.5260413 9.23677632,14.6620068 9.24330343,14.7960046 C9.2751711,15.4796236 9.31831723,16.1913189 10.1318066,17.4056498 L5.11932006,17.4056498 L5.11932006,17.4056498 Z M16.1558037,21.4950779 C15.1144413,19.8287924 13.888112,19.0854215 12.8932552,18.4819995 C12.1953341,18.059033 11.59292,17.6936107 11.1644823,17.1046827 C10.3215728,15.9453523 10.2970962,15.4174241 10.2660924,14.748491 C10.2590853,14.5980315 10.2515984,14.4455082 10.2360965,14.285546 C10.1376139,13.2486949 9.5002125,11.7468831 8.61233321,10.460082 C7.82293652,9.31572558 7.30801452,7.75046637 8.04092289,7.01703008 C8.10043479,6.95703823 8.17991199,6.90803689 8.36535878,6.944032 C9.1677617,7.10749778 10.4620977,8.59932697 10.7875415,9.40619328 C11.1795042,10.3765734 12.240352,12.6957621 13.6256357,13.2711559 C13.7831023,13.3351312 13.9636057,13.3186694 14.1060504,13.2241703 C14.6179968,12.8832246 14.851437,12.3497771 15.0224378,11.9603581 C15.0719191,11.8483893 15.138918,11.6943782 15.1374302,11.6833877 C15.3469217,11.5383994 15.417904,11.2614291 15.3039195,11.0334601 C15.1479407,10.7219824 14.9079734,9.8886237 14.8284962,9.5936558 C14.7865019,9.43815694 14.6740052,9.3112142 14.5240255,9.25122235 L12.2863297,8.35619203 L12.2863297,6.2246578 C14.1468448,6.51261865 16.5613006,7.047026 17.043683,7.52897648 C17.7015776,8.18687104 18.5454949,11.2049887 19.0499063,13.0082476 C19.2158677,13.6021669 19.360856,14.1205924 19.4773362,14.4880304 C19.9063019,15.8478296 20.9831315,17.38962 21.4215519,17.9835392 C21.0181667,18.8014441 19.4938459,21.3560888 16.1558037,21.4950779 Z" id="Shape"></path>
                    </g>
                </g>
            </g>
        </g>
    </g>
</svg>