<?xml version="1.0" encoding="UTF-8"?>
<svg width="23px" height="28px" viewBox="0 0 23 28" version="1.1" xmlns="http://www.w3.org/2000/svg" xmlns:xlink="http://www.w3.org/1999/xlink">
    <!-- Generator: Sketch 45.2 (43514) - http://www.bohemiancoding.com/sketch -->
    <title>currency</title>
    <desc>Created with Sketch.</desc>
    <defs></defs>
    <g id="Hi-fi" stroke="none" stroke-width="1" fill="none" fill-rule="evenodd">
        <g id="3.4-Prize-Payout-1024x700" transform="translate(-26.000000, -307.000000)" fill-rule="nonzero" fill="#FFFFFF">
            <g id="Group-11">
                <g id="Group-9" transform="translate(24.000000, 180.000000)">
                    <g id="currency" transform="translate(2.000000, 127.000000)">
                        <path d="M17.2321115,19.8927713 C16.7523644,19.5675145 16.1604561,19.4041609 15.5881545,19.2462327 C15.4632623,19.2117464 15.3387999,19.1774212 15.2168621,19.1415919 C14.5167139,18.9357481 14.0677467,18.5295397 14.0158023,18.0547883 C13.9737956,17.6708187 14.2049401,17.3004396 14.6338709,17.0640845 C14.7245453,17.0141813 14.8254796,16.9769017 14.9335583,16.9505266 L14.9335583,17.8028015 C14.9335583,18.119195 15.1900573,18.3758015 15.5065583,18.3758015 C15.8229518,18.3758015 16.0795582,18.119195 16.0795582,17.8028015 L16.0795582,16.9924259 C16.4140543,17.0748816 16.739902,17.2078314 17.0067684,17.3691974 C17.2775024,17.5331419 17.6297789,17.4464963 17.7936159,17.1757085 C17.957453,16.9049746 17.8708611,16.5526981 17.6001271,16.3888073 C17.1761383,16.1321472 16.6392362,15.9213077 16.0796119,15.8197287 L16.0796119,15.4078263 C16.0796119,15.0914328 15.8230055,14.8348264 15.506612,14.8348264 C15.1901648,14.8348264 14.9336121,15.0914328 14.9336121,15.4078263 L14.9336121,15.7850275 C14.6330114,15.8274103 14.3438524,15.9155063 14.0809611,16.0603275 C13.2455534,16.5206827 12.7841238,17.3325624 12.8766783,18.1793582 C12.9805671,19.1296667 13.7345935,19.9003454 14.893754,20.241019 C14.9068072,20.2448329 14.9203977,20.2485931 14.9335583,20.252407 L14.9335583,22.9502928 C14.4593978,22.871275 14.0670484,22.6704269 13.9413505,22.4284315 C13.7956161,22.147545 13.4498394,22.0380159 13.1689528,22.1836966 C12.8880663,22.329431 12.7784835,22.6752614 12.9241642,22.9562017 C13.2726268,23.6278798 14.0810686,24.0062628 14.9335046,24.1028461 L14.9335046,24.7009856 C14.9335046,25.0173791 15.1900036,25.2739855 15.5065045,25.2739855 C15.822898,25.2739855 16.0795044,25.0173791 16.0795044,24.7009856 L16.0795044,24.061484 C16.1983266,24.0384394 16.3143017,24.0098082 16.4255498,23.9747309 C17.3242899,23.6914808 17.9927988,22.9095216 18.1284344,21.9826336 C18.2519836,21.13847 17.9168966,20.357209 17.2321115,19.8927713 Z M16.9945209,21.8167553 C16.9221103,22.3117044 16.5636026,22.7297305 16.081116,22.8817498 C16.0806325,22.881911 16.0800953,22.8820184 16.0795582,22.882287 L16.0795582,20.5938327 C16.2722413,20.6650078 16.4474126,20.7453685 16.5890108,20.8413072 C17.0391598,21.146635 17.0226149,21.6251466 16.9945209,21.8167553 Z" id="Shape"></path>
                        <path d="M15.5065583,12.6056757 C15.3137677,12.6056757 15.1224813,12.6130887 14.9333435,12.6274848 L14.9333435,2.72168242 C14.9333435,2.12348921 14.5141355,1.279433 12.5174186,0.655401884 C11.1649304,0.23280975 9.37754882,0 7.48455952,0 C5.59157023,0 3.80424239,0.23280975 2.45170047,0.655401884 C0.454876088,1.279433 0.0357218468,2.12348921 0.0357218468,2.72168242 L0.0357218468,20.0545134 C0.0357218468,20.6526529 0.454876088,21.4967091 2.45170047,22.1206865 C3.80424239,22.5433323 5.59162394,22.7761421 7.48455952,22.7761421 C7.84537703,22.7761421 8.20619454,22.7670639 8.56239239,22.7498744 C9.64489864,25.5286581 12.3492842,27.5031362 15.5065045,27.5031362 C19.6137649,27.5031362 22.9552348,24.16172 22.9552348,20.0545134 C22.9552885,15.9471993 19.6138186,12.6056757 15.5065583,12.6056757 Z M2.79350214,1.74918872 C4.03839507,1.36016975 5.70432234,1.1459461 7.48455952,1.1459461 C9.26468927,1.1459461 10.930724,1.36016975 12.1756169,1.74918872 C13.4912552,2.16033912 13.7873974,2.60006699 13.7873974,2.72168242 C13.7873974,2.84335157 13.4912552,3.28302573 12.1756169,3.69422985 C10.930724,4.0831951 9.2647967,4.29741875 7.48455952,4.29741875 C5.70432234,4.29741875 4.03834135,4.0831951 2.79350214,3.69417613 C1.4777564,3.28302573 1.18166795,2.84335157 1.18166795,2.72168242 C1.18166795,2.60012071 1.4777564,2.16039283 2.79350214,1.74918872 Z M1.18166795,4.25739953 C1.50993292,4.44385146 1.92559555,4.62358875 2.45170047,4.78796296 C3.80424239,5.21060882 5.59162394,5.44336485 7.48455952,5.44336485 C9.3774951,5.44336485 11.1649304,5.2105551 12.5174186,4.78801668 C13.0435235,4.62364247 13.4591324,4.44390518 13.7873974,4.25745325 L13.7873974,5.61063978 C13.7873974,5.7322015 13.4912552,6.17192937 12.1756169,6.58313349 C10.9306703,6.97209874 9.2647967,7.18632239 7.48455952,7.18632239 C6.65839109,7.18632239 5.85177568,7.13980341 5.08711329,7.0481621 C4.77308334,7.01018414 4.48763087,7.23466774 4.45002892,7.54885884 C4.41237326,7.86304995 4.63653456,8.14834127 4.95072567,8.18594321 C5.76045667,8.28300994 6.61294646,8.33226849 7.48461324,8.33226849 C9.37760253,8.33226849 11.1649841,8.09945874 12.5174186,7.67686661 C13.0435235,7.51249239 13.4591324,7.3327551 13.7873974,7.14635689 L13.7873974,11.3881248 C13.7873974,11.5097939 13.4912552,11.9494681 12.1756169,12.3606722 C10.930724,12.7496912 9.2647967,12.9638611 7.48455952,12.9638611 C5.70432234,12.9638611 4.03828764,12.7496912 2.79350214,12.3606722 C1.4777564,11.9495218 1.18161423,11.5097939 1.18161423,11.3881248 L1.18161423,10.0351531 C1.5098792,10.2215513 1.92554184,10.4013423 2.45164675,10.5657165 C3.80418868,10.9883624 5.59157023,11.2211184 7.4845058,11.2211184 C8.61224182,11.2211184 9.69222337,11.1401668 10.6944763,10.980466 C11.0070559,10.930724 11.2200441,10.6369991 11.1702484,10.3245269 C11.1204526,10.0119473 10.8259757,9.79912033 10.5142556,9.84880861 C9.58468181,9.99685283 8.53703793,10.0751186 7.4845058,10.0751186 C5.70437606,10.0751186 4.03828764,9.86089495 2.79344842,9.47187598 C1.47770268,9.06072558 1.18156051,8.62105142 1.18156051,8.49943599 L1.18156051,4.25739953 L1.18166795,4.25739953 Z M7.48455952,21.630196 C5.70442977,21.630196 4.03834135,21.4159723 2.79350214,21.0269534 C1.4777564,20.615803 1.18161423,20.1761288 1.18161423,20.0545134 L1.18161423,18.7013806 C1.5098792,18.8877788 1.92554184,19.0675698 2.45164675,19.231944 C3.80413496,19.6545898 5.59157023,19.8873996 7.4845058,19.8873996 C7.676222,19.8873996 7.8682605,19.8847137 8.05960068,19.8798255 C8.05825775,19.9380548 8.05750571,19.9961767 8.05750571,20.0545134 C8.05750571,20.1197259 8.0584189,20.1846161 8.06008413,20.2494526 C8.0606213,20.2695965 8.06164193,20.2898478 8.06239397,20.3100992 C8.06389804,20.3546843 8.0653484,20.3993232 8.06765824,20.4436398 C8.06889373,20.468081 8.07082754,20.4925223 8.07227791,20.5168561 C8.07474889,20.5567679 8.07711244,20.5968408 8.0801206,20.6365915 C8.08221556,20.6635574 8.08495513,20.6904697 8.08731868,20.7173282 C8.09064914,20.754393 8.09371101,20.7915115 8.09757864,20.8284151 C8.10064051,20.8575298 8.10423956,20.8865907 8.10762373,20.9155442 C8.1115988,20.9498694 8.11541271,20.9842483 8.11981751,21.0184661 C8.1239,21.0501591 8.12857339,21.0817985 8.13308562,21.1133304 C8.13749042,21.1443252 8.14178778,21.1754273 8.14662232,21.2063146 C8.15204774,21.2409084 8.15795662,21.2753948 8.1638655,21.3099349 C8.16848516,21.3373306 8.17310483,21.36478 8.17799309,21.392122 C8.18486887,21.4298851 8.19233554,21.4675407 8.1997485,21.5052501 C8.20431445,21.5285096 8.2088804,21.5518228 8.21366121,21.5749748 C8.21650822,21.588995 8.21908664,21.60323 8.22214851,21.6173576 C7.97757472,21.6258986 7.73106712,21.630196 7.48455952,21.630196 Z M8.71704381,16.9907607 C8.71682894,16.9913516 8.71650664,16.9917813 8.71629177,16.9923722 C8.69614787,17.0371185 8.67654115,17.082026 8.657203,17.127202 C8.65172386,17.1400404 8.64602985,17.1527714 8.64065815,17.1656635 C8.63174112,17.186828 8.62325382,17.2080999 8.61455166,17.2293719 C8.41805464,17.7069166 8.26947324,18.20901 8.17557582,18.7299043 C7.94604281,18.7373173 7.71505944,18.7414535 7.4845058,18.7414535 C5.70426862,18.7414535 4.03828764,18.5272299 2.79344842,18.1382109 C1.47770268,17.7270605 1.18156051,17.2873326 1.18156051,17.1657172 L1.18156051,12.9237882 L1.18161423,12.9237882 C1.5098792,13.1101864 1.92554184,13.2899774 2.45164675,13.4543516 C3.80413496,13.8769437 5.59151651,14.1097535 7.4845058,14.1097535 C8.99298836,14.1097535 10.4336263,13.9615481 11.6412933,13.6876448 C10.9687019,14.0964316 10.359067,14.6119543 9.84021388,15.2192257 C9.69034327,15.3947193 9.54949713,15.5766053 9.41735316,15.7640241 C8.79423523,15.8226832 8.14399018,15.8526036 7.4845058,15.8526036 C6.65833738,15.8526036 5.85172196,15.8060846 5.08705957,15.7144433 C4.77302962,15.6767339 4.48757715,15.9008952 4.44997521,16.21514 C4.41231954,16.5293311 4.63648085,16.8146225 4.95067195,16.8522244 C5.76040295,16.9492911 6.61289274,16.9985497 7.48455952,16.9985497 C7.90457324,16.9985497 8.32045074,16.9856039 8.72988219,16.9628815 C8.72563854,16.9722283 8.72128746,16.9814677 8.71704381,16.9907607 Z M15.5065583,26.3571901 C12.6836729,26.3571901 10.2883216,24.4919188 9.48825968,21.9292926 C9.47853689,21.8981367 9.46945871,21.8667659 9.46021938,21.8355026 C9.44474886,21.7830747 9.42997667,21.7303783 9.41579536,21.6774133 C9.40634116,21.6418526 9.39715554,21.6061845 9.38829223,21.5705163 C9.38104043,21.5410794 9.37352004,21.5117499 9.36664425,21.4820443 C9.35273153,21.4218812 9.339732,21.3615032 9.32748451,21.3008567 C9.32248883,21.2760931 9.31786916,21.2512221 9.31314206,21.2263511 C9.3032044,21.1736547 9.29391135,21.1207971 9.28537034,21.0678858 C9.28268448,21.0513409 9.27967633,21.0349035 9.27715163,21.0183049 C9.26673052,20.95089 9.25770605,20.8832065 9.24954106,20.8154156 C9.2471775,20.7957014 9.2449751,20.7759873 9.24277271,20.7562731 C9.2355209,20.6905234 9.2289137,20.62472 9.22370315,20.5587555 C9.22321969,20.552954 9.22268252,20.54726 9.22219907,20.5414586 C9.21671993,20.4700686 9.21279858,20.3984637 9.20973671,20.3266977 C9.20893096,20.3087025 9.20828635,20.2907073 9.20769546,20.2727121 C9.20517076,20.2000866 9.20350553,20.1274074 9.20350553,20.0545134 C9.20350553,19.9671157 9.20586908,19.8802552 9.20936069,19.793717 C9.20995158,19.7795895 9.2103276,19.7653007 9.2109722,19.7511731 C9.21462496,19.6731222 9.2201041,19.5954474 9.22655015,19.5181485 C9.2285914,19.4938147 9.23068637,19.4694809 9.23304992,19.4452545 C9.2396034,19.376604 9.24733866,19.3082759 9.2559871,19.2403239 C9.26076792,19.2035277 9.26608591,19.1670001 9.27145762,19.1304188 C9.27634587,19.0968456 9.28182501,19.0634336 9.28719672,19.0300216 C9.30057226,18.9486939 9.31496844,18.867796 9.33151329,18.7875965 C9.33167444,18.7866295 9.33194303,18.7856626 9.3321579,18.7846957 C9.80454575,16.48437 11.5341815,14.6373625 13.768489,13.9954973 C13.7776746,13.9929189 13.7866991,13.990233 13.795831,13.9876546 C13.8475068,13.9730973 13.8996123,13.9591845 13.951879,13.945809 C14.011505,13.9308219 14.0715069,13.916372 14.1319386,13.9029965 C14.1549832,13.8978397 14.178189,13.8927365 14.2014485,13.8877946 C14.2804663,13.8712497 14.360075,13.8558329 14.4402746,13.8421888 C14.7869645,13.7828851 15.143216,13.7515144 15.5066657,13.7515144 C18.9819448,13.7515144 21.8093961,16.5790194 21.8093961,20.0544059 C21.8092887,23.5297925 18.9818374,26.3571901 15.5065583,26.3571901 Z" id="Shape"></path>
                    </g>
                </g>
            </g>
        </g>
    </g>
</svg>