<svg id="Layer_1" data-name="Layer 1" xmlns="http://www.w3.org/2000/svg" viewBox="0 0 356.29 356.29"><title>diable upgrade</title><rect x="-962.37" y="565.73" width="14.85" height="341.02" transform="translate(1367.98 325.93) rotate(45)" style="fill:#fff"/><circle cx="178.15" cy="178.15" r="170.35" style="fill:none;stroke:#fff;stroke-miterlimit:10;stroke-width:15.582170844078064px"/><rect x="146.18" y="230.1" width="63.9" height="13.16" style="fill:#fff"/><rect x="146.18" y="250.8" width="63.9" height="13.16" style="fill:#fff"/><rect x="146.18" y="270.85" width="63.9" height="13.16" style="fill:#fff"/><polygon points="161.76 202.52 209.99 202.52 209.99 154.29 161.76 202.52" style="fill:#fff"/><polygon points="146.3 175.76 217.83 104.23 178.15 64.54 103.85 138.84 146.3 138.84 146.3 175.76" style="fill:#fff"/><polygon points="225.44 138.84 252.44 138.84 238.94 125.34 225.44 138.84" style="fill:#fff"/><polygon points="146.18 218.69 146.18 223.72 210.08 223.72 210.08 210.56 154.3 210.56 146.18 218.69" style="fill:#fff"/></svg>