<?xml version="1.0" encoding="UTF-8"?>
<svg width="25px" height="24px" viewBox="0 0 25 24" version="1.1" xmlns="http://www.w3.org/2000/svg" xmlns:xlink="http://www.w3.org/1999/xlink">
    <!-- Generator: Sketch 46.2 (44496) - http://www.bohemiancoding.com/sketch -->
    <title>Group 15</title>
    <desc>Created with Sketch.</desc>
    <defs></defs>
    <g id="Hi-fi" stroke="none" stroke-width="1" fill="none" fill-rule="evenodd">
        <g id="Disconnect-Dialog" transform="translate(-1364.000000, -163.000000)">
            <g id="Group-11" transform="translate(-13.000000, 0.000000)">
                <g id="Group-6">
                    <g id="Group-4" transform="translate(1376.000000, 162.000000)">
                        <g id="Group-15">
                            <path d="M13.625,7.125 C17.8229377,7.125 21.4452973,8.54686078 24.4921875,11.390625 L25,11.8984375 L24.4921875,12.3554688 L22.359375,14.4882812 L21.9023438,14.03125 C19.5663946,11.8645725 16.8073076,10.78125 13.625,10.78125 C10.4426924,10.78125 7.68360543,11.8645725 5.34765625,14.03125 L4.890625,14.4882812 L2.7578125,12.3554688 L2.25,11.8984375 L2.7578125,11.390625 C5.80470273,8.54686078 9.42706234,7.125 13.625,7.125 Z M20.7851562,15.25 L21.34375,15.7578125 L20.8359375,16.265625 L19.1601562,17.890625 L18.703125,18.3476562 L18.1953125,17.9414062 C16.8411391,16.7565045 15.3177168,16.1640625 13.625,16.1640625 C11.9322832,16.1640625 10.4088609,16.7565045 9.0546875,17.9414062 L8.546875,18.3476562 L8.08984375,17.890625 L6.4140625,16.265625 L5.90625,15.7578125 L6.46484375,15.25 C8.3945409,13.5234289 10.6288936,12.6093755 13.1679688,12.5078125 L13.625,12.5078125 C16.3672012,12.5078125 18.7538961,13.4218659 20.7851562,15.25 Z M13.625,23.375 L10.4765625,20.2265625 L9.91796875,19.71875 L10.5273438,19.2109375 C11.5768282,18.5338508 12.6093699,18.1953125 13.625,18.1953125 C14.8099018,18.1953125 15.8593704,18.5338508 16.7734375,19.2109375 L17.3320312,19.71875 L16.8242188,20.2265625 L14.1328125,22.8671875 L13.625,23.375 Z" id="" fill="#A4A4A4"></path>
                            <polygon id="Line-5" fill="#F8F8F8" fill-rule="nonzero" points="0.965908286 4.60097405 22.600974 25.0340917 26.0340917 21.399026 4.39902595 0.965908286"></polygon>
                            <polygon id="Line-5" fill="#A4A4A4" fill-rule="nonzero" points="3.08636331 4.54038962 22.5403896 22.9136367 23.9136367 21.4596104 4.45961038 3.08636331"></polygon>
                        </g>
                    </g>
                </g>
            </g>
        </g>
    </g>
</svg>