<?xml version="1.0" encoding="UTF-8"?>
<svg width="64px" height="61px" viewBox="0 0 64 61" version="1.1" xmlns="http://www.w3.org/2000/svg" xmlns:xlink="http://www.w3.org/1999/xlink">
    <!-- Generator: Sketch 46.2 (44496) - http://www.bohemiancoding.com/sketch -->
    <title>Group 16</title>
    <desc>Created with Sketch.</desc>
    <defs></defs>
    <g id="Hi-fi" stroke="none" stroke-width="1" fill="none" fill-rule="evenodd">
        <g id="Disconnect-Dialog" transform="translate(-710.000000, -291.000000)">
            <g id="Group-4" transform="translate(710.000000, 291.000000)">
                <g id="Group-16">
                    <path d="M33,16 C43.333385,16 52.2499625,19.499965 59.75,26.5 L61,27.75 L59.75,28.875 L54.5,34.125 L53.375,33 C47.6249713,27.66664 40.8333725,25 33,25 C25.1666275,25 18.3750287,27.66664 12.625,33 L11.5,34.125 L6.25,28.875 L5,27.75 L6.25,26.5 C13.7500375,19.499965 22.666615,16 33,16 Z M50.625,36 L52,37.25 L50.75,38.5 L46.625,42.5 L45.5,43.625 L44.25,42.625 C40.91665,39.7083187 37.1666875,38.25 33,38.25 C28.8333125,38.25 25.08335,39.7083187 21.75,42.625 L20.5,43.625 L19.375,42.5 L15.25,38.5 L14,37.25 L15.375,36 C20.1250237,31.7499787 25.6249687,29.5000012 31.875,29.25 L33,29.25 C39.7500338,29.25 45.624975,31.4999775 50.625,36 Z M33,56 L25.25,48.25 L23.875,47 L25.375,45.75 C27.9583462,44.083325 30.4999875,43.25 33,43.25 C35.9166812,43.25 38.4999887,44.083325 40.75,45.75 L42.125,47 L40.875,48.25 L34.25,54.75 L33,56 Z" id="" fill="#1875F0"></path>
                    <polygon id="Line-5" fill="#F8F8F8" fill-rule="nonzero" points="0.726048723 8.75628411 55.7562841 60.2739513 63.2739513 52.2437159 8.24371589 0.726048723"></polygon>
                    <polygon id="Line-5" fill="#1875F0" fill-rule="nonzero" points="4.96638578 8.61649278 55.6164928 56.0336142 59.0336142 52.3835072 8.38350722 4.96638578"></polygon>
                </g>
            </g>
        </g>
    </g>
</svg>