<?xml version="1.0" encoding="UTF-8"?>
<svg width="23px" height="24px" viewBox="0 0 23 24" version="1.1" xmlns="http://www.w3.org/2000/svg" xmlns:xlink="http://www.w3.org/1999/xlink">
    <!-- Generator: Sketch 45.2 (43514) - http://www.bohemiancoding.com/sketch -->
    <title>discount</title>
    <desc>Created with Sketch.</desc>
    <defs></defs>
    <g id="Hi-fi" stroke="none" stroke-width="1" fill="none" fill-rule="evenodd">
        <g id="3.4-Prize-Payout-1024x700" transform="translate(-26.000000, -424.000000)" fill-rule="nonzero" fill="#FFFFFF">
            <g id="Group-11">
                <g id="Group-9" transform="translate(24.000000, 180.000000)">
                    <g id="discount" transform="translate(2.000000, 244.000000)">
                        <path d="M21.5627882,12.0064952 L22.8888184,8.68538302 C22.9911427,8.42900894 22.8960085,8.13620162 22.662546,7.98901993 L19.6374606,6.08150661 L18.7582875,2.61541271 C18.6904111,2.34787793 18.4410125,2.16726781 18.165912,2.18502834 L14.5974402,2.41972492 L11.8486894,0.13242596 C11.6365288,-0.0442135296 11.3286438,-0.0441062152 11.1164833,0.13242596 L8.36767877,2.41977857 L4.79942157,2.185082 C4.52399918,2.16716049 4.27497613,2.34798525 4.20709978,2.61546637 L3.32760468,6.08156027 L0.302733901,7.98901993 C0.0692714402,8.13620162 -0.0258627685,8.42911626 0.0764615045,8.68538302 L1.40243814,12.0064952 L0.0764615045,15.327661 C-0.0258627685,15.5840351 0.0692714402,15.8768424 0.302733901,16.0240241 L3.32765833,17.9314837 L4.20715343,21.3975776 C4.27497613,21.6651124 4.52507232,21.8464201 4.79947522,21.827962 L8.36773242,21.5932118 L11.1165369,23.8805644 C11.2226172,23.9688305 11.3526286,24.0129367 11.4825863,24.0129367 C11.6125977,24.0129367 11.7426091,23.9688305 11.848743,23.8805644 L14.5974402,21.5932118 L18.165912,21.827962 C18.4406905,21.8460982 18.6904111,21.6650051 18.7582875,21.3975776 L19.6374606,17.9314837 L22.662546,16.0240241 C22.8960085,15.8768424 22.9911427,15.5839814 22.8888184,15.327661 L21.5627882,12.0064952 Z M18.8335685,17.0850951 C18.7094594,17.1633273 18.6201202,17.2863096 18.5840626,17.4285012 L17.7657903,20.6544255 L14.4445709,20.435987 C14.2978184,20.4263287 14.1536952,20.4733861 14.0409078,20.5671789 L11.48264,22.6959208 L8.92426486,20.5671252 C8.82113573,20.4813274 8.6915536,20.4347529 8.55821547,20.4347529 C8.54571334,20.4347529 8.53315756,20.4351285 8.52065543,20.4359334 L5.19965059,20.6543718 L4.38105641,17.4284475 C4.34499877,17.2862023 4.2557132,17.1632737 4.1316041,17.0850415 L1.31626468,15.3097395 L2.55038019,12.2186557 C2.60473493,12.0823665 2.60473493,11.9304629 2.55038019,11.7942273 L1.31626468,8.70319721 L4.1316041,6.92784156 C4.2557132,6.84960937 4.34499877,6.72668074 4.38105641,6.58443551 L5.19948962,3.35851122 L8.52049446,3.57689601 C8.66735421,3.58698356 8.81137012,3.53949694 8.92415755,3.44570416 L11.4825327,1.31690856 L14.0408005,3.44570416 C14.1535879,3.53949694 14.2976575,3.58698356 14.4444635,3.57689601 L17.765683,3.35851122 L18.5839553,6.58443551 C18.6200665,6.72662708 18.7093521,6.84960937 18.8334612,6.92784156 L21.648908,8.70319721 L20.4147388,11.7942273 C20.360384,11.9305166 20.360384,12.0824201 20.4147388,12.2186557 L21.648908,15.3097395 L18.8335685,17.0850951 Z" id="Shape"></path>
                        <path d="M6.20502548,6.36513855 C6.25272672,6.37737239 6.30048163,6.38316737 6.34748533,6.38316737 C6.6026253,6.38316737 6.83522924,6.21135702 6.90149588,5.952783 L6.94887519,5.76793396 L9.28237299,5.92128622 C9.42858885,5.93072989 9.57319499,5.88388716 9.68598242,5.79009438 L11.48264,4.29509758 L13.2791902,5.78998706 C13.3919776,5.88377984 13.5359936,5.93062257 13.6827996,5.92117891 L16.4903588,5.73670547 C16.8058631,5.71599379 17.0447449,5.44346889 17.0239796,5.12807189 C17.0032679,4.81267489 16.7314942,4.57347111 16.415346,4.59445108 L13.83583,4.7639005 L11.8487967,3.11050766 C11.6366361,2.93386817 11.3287511,2.93397548 11.1165906,3.11050766 L9.12950364,4.7639005 L6.54998759,4.59445108 C6.27585297,4.57663689 6.02650798,4.75665678 5.9580414,5.02349402 L5.79266992,5.66861449 C5.7142231,5.9748361 5.8987502,6.28663807 6.20502548,6.36513855 Z" id="Shape"></path>
                        <path d="M16.7601472,17.6475299 C16.4540329,17.5691367 16.1421236,17.7537711 16.0636768,18.0599391 L16.0162974,18.2450027 L13.6828533,18.0914359 C13.5360472,18.0818849 13.3919776,18.1288349 13.2791902,18.2226277 L11.48264,19.7174635 L9.68603608,18.2226277 C9.57324865,18.1288349 9.42864251,18.0818849 9.28237299,18.0914359 L6.47481386,18.2761776 C6.15930954,18.2968893 5.92048136,18.5694678 5.9412467,18.8848648 C5.96201203,19.2003691 6.23577105,19.4393046 6.54993393,19.418432 L9.12944998,19.2486606 L11.1164833,20.9019998 C11.2225635,20.9903195 11.3525749,21.0344257 11.4825327,21.0344257 C11.6125977,21.0344257 11.7425554,20.9902659 11.8486894,20.9019998 L13.835669,19.2486606 L16.415185,19.418432 C16.6899099,19.4364071 16.9388256,19.2562263 17.0072385,18.9893354 L17.17261,18.3440003 C17.2510032,18.037886 17.0663688,17.7260303 16.7601472,17.6475299 Z" id="Shape"></path>
                        <path d="M17.7722828,9.16362961 L15.4047127,9.16362961 C14.8356782,9.16362961 14.5509194,9.45890516 14.5509194,10.0495099 L14.5509194,14.6157373 C14.5509194,14.7769235 14.6207811,14.8572484 14.7603971,14.8572484 L15.4367997,14.8572484 C15.5870935,14.8572484 15.6623209,14.7769235 15.6623209,14.6157373 L15.6623209,12.5943098 L17.4420228,12.5943098 C17.5923703,12.5943098 17.6675977,12.5298138 17.6675977,12.4009829 L17.6675977,11.8373677 C17.6675977,11.6922786 17.5923166,11.6198414 17.4420228,11.6198414 L15.6623209,11.6198414 L15.6623209,10.4360564 C15.6623209,10.2318371 15.7482798,10.1297811 15.9200364,10.1297811 L17.7722292,10.1297811 C17.9225767,10.1297811 17.997804,10.0680753 17.997804,9.94466376 L17.997804,9.38078029 C17.9979114,9.23595951 17.9226303,9.16362961 17.7722828,9.16362961 Z" id="Shape"></path>
                        <path d="M11.9269216,10.1298347 L13.7792216,10.1298347 C13.9295154,10.1298347 14.0047428,10.068129 14.0047428,9.94471742 L14.0047428,9.3808876 C14.0047428,9.23601317 13.9294618,9.16362961 13.7792216,9.16362961 L11.4115442,9.16362961 C10.8425096,9.16362961 10.5578045,9.45890516 10.5578045,10.0495099 L10.5578045,14.6157373 C10.5578045,14.7767089 10.6276662,14.8572484 10.7672822,14.8572484 L11.4436848,14.8572484 C11.5939787,14.8572484 11.669206,14.7769235 11.669206,14.6157373 L11.669206,12.5943098 L13.4489079,12.5943098 C13.5992554,12.5943098 13.6744828,12.5298138 13.6744828,12.4009829 L13.6744828,11.8373677 C13.6744828,11.6922786 13.5992017,11.6198414 13.4489079,11.6198414 L11.669206,11.6198414 L11.669206,10.4360564 C11.6692597,10.2318371 11.7551649,10.1298347 11.9269216,10.1298347 Z" id="Shape"></path>
                        <path d="M7.38349847,14.953885 C7.82364845,14.953885 8.19146853,14.9082763 8.48674408,14.8168981 C8.78201963,14.7256273 9.03705229,14.56868 9.25178839,14.345788 C9.46657814,14.1231643 9.62234498,13.8171573 9.71882062,13.427767 C9.81545723,13.038645 9.86380237,12.551384 9.86380237,11.966145 C9.86380237,11.4722305 9.83037393,11.0534897 9.76319512,10.7097081 C9.69612363,10.3661947 9.60340399,10.0869626 9.48535816,9.87222655 C9.36720502,9.65749045 9.20344325,9.48954342 8.99407287,9.36865376 C8.78470249,9.24808604 8.5618105,9.16609784 8.32555787,9.1232794 C8.08941255,9.08013902 7.79681986,9.05878345 7.4477798,9.05878345 C7.06654542,9.05878345 6.73639269,9.09902635 6.45716064,9.17961946 C6.17792859,9.26015891 5.92015942,9.40251145 5.6840141,9.60646245 C5.44781512,9.81046711 5.26929763,10.1097133 5.14840797,10.5042547 C5.02767928,10.898957 4.96720762,11.3887399 4.96720762,11.9740326 C4.96720762,12.5593253 5.01415766,13.0464253 5.10816507,13.4358692 C5.20206517,13.8249912 5.35386137,14.1310519 5.56312444,14.3538902 C5.77249482,14.5767822 6.02087398,14.7323344 6.30804729,14.8210297 C6.59548889,14.9096714 6.95386531,14.953885 7.38349847,14.953885 Z M6.11091075,11.9740862 C6.11091075,11.4426654 6.16472892,11.0278952 6.271936,10.7300441 C6.37941136,10.4319248 6.52160293,10.2332322 6.69883265,10.1340737 C6.8759014,10.0346469 7.11494421,9.98501397 7.41553182,9.98501397 C7.74842107,9.98501397 8.00211229,10.0332518 8.17665915,10.1298884 C8.35115235,10.226525 8.48261248,10.4184031 8.57130783,10.7058447 C8.65989586,10.9930717 8.70416304,11.418466 8.70416304,11.9823494 C8.70416304,12.4171874 8.67599302,12.7727736 8.61954564,13.0493764 C8.56320559,13.3258183 8.4745639,13.5337936 8.35378155,13.6735169 C8.23294555,13.8130793 8.09998301,13.9070867 7.95510859,13.9553245 C7.81012684,14.0037233 7.6249022,14.0277618 7.39943466,14.0277618 C7.17396712,14.0277618 6.9873474,14.0023282 6.83968279,13.9513539 C6.69207185,13.9003259 6.56061171,13.8022406 6.44514143,13.6574198 C6.32961749,13.5123844 6.2451074,13.303014 6.19139655,13.0293087 C6.13779301,12.7554423 6.11091075,12.4037194 6.11091075,11.9740862 Z" id="Shape"></path>
                    </g>
                </g>
            </g>
        </g>
    </g>
</svg>