<?xml version="1.0" encoding="UTF-8"?>
<svg width="68px" height="82px" viewBox="0 0 68 82" version="1.1" xmlns="http://www.w3.org/2000/svg" xmlns:xlink="http://www.w3.org/1999/xlink">
    <!-- Generator: Sketch 45.2 (43514) - http://www.bohemiancoding.com/sketch -->
    <title>employee (1) copy</title>
    <desc>Created with Sketch.</desc>
    <defs></defs>
    <g id="Hi-fi" stroke="none" stroke-width="1" fill="none" fill-rule="evenodd">
        <g id="2.3-Account" transform="translate(-932.000000, -325.000000)" fill="#1875F0">
            <g id="Group-8" transform="translate(326.000000, 239.000000)">
                <g id="employee-(1)-copy" transform="translate(606.000000, 86.000000)">
                    <path d="M40.35605,16.9082873 C37.6356972,14.6413266 33.7800287,13.1922591 28.8961287,12.6014609 C24.9678473,12.1260455 21.2119219,12.3073385 18.7526565,12.5430513 C16.8216305,12.7280149 15.3655411,14.3350754 15.3655411,16.2812624 L15.3655411,19.1071035 C15.3655411,19.7682804 15.9012811,20.3040205 16.5624581,20.3040205 C17.223635,20.3040205 17.759375,19.7682804 17.759375,19.1071035 L17.759375,16.2812624 C17.759375,15.5754006 18.2844226,14.9927414 18.9808687,14.9260332 C23.0950712,14.5315294 33.2643969,14.1143639 38.8235176,18.7472305 C39.3314891,19.1706199 40.0860256,19.1019967 40.5092554,18.5940251 C40.9323256,18.0860536 40.863862,17.3313575 40.35605,16.9082873 Z" id="Shape" fill-rule="nonzero"></path>
                    <path d="M40.8691284,0 L24.2380471,0 C21.8675132,0 19.5946477,0.958331509 17.9301352,2.64470771 C13.585965,3.2327929 10.2486413,7.00308131 10.2486413,11.4311953 L10.2486413,14.9927414 C10.2486413,16.9714845 10.4920144,18.9484721 10.9718984,20.8681673 L11.5277466,23.092039 L11.5277466,27.5527091 C11.5277466,32.9771368 14.0391975,37.8528977 17.9242304,40.9886605 L17.9242304,45.2517596 C17.2301781,45.3337883 16.5774594,45.7107373 16.1569426,46.3415923 L14.5053568,48.8190509 L5.85483898,51.9647082 C2.36127777,53.2348765 0.0142034145,56.5857652 0.0142034145,60.3030701 L0.0142034145,71.5574408 C0.0142034145,72.2186178 0.549943444,72.7543578 1.21112037,72.7543578 C1.8722973,72.7543578 2.40803733,72.2186178 2.40803733,71.5574408 L2.40803733,60.3030701 C2.40803733,57.5887816 4.12186282,55.1419642 6.67289182,54.2145929 L14.8379401,51.2454409 L19.8278071,58.2314462 C20.2516753,58.825117 20.9115755,59.1998318 21.6385031,59.2599968 C21.7072859,59.265742 21.7757496,59.2686146 21.8442132,59.2686146 C22.4983682,59.2686146 23.1268294,59.0102402 23.5939462,58.543283 L24.3420991,57.7951301 C24.4119991,58.3524146 24.665905,58.8532047 25.0434924,59.2322284 L24.3226293,71.4873813 C24.2838491,72.1472815 24.7873522,72.7138222 25.4472524,72.7526023 C25.4711908,72.7540386 25.4949695,72.754677 25.5185887,72.754677 C26.1473691,72.754677 26.67497,72.263941 26.7123139,71.6279791 L27.3985462,59.9617094 L28.7534562,59.9617094 L29.4396886,71.6279791 C29.4770324,72.263941 30.0046334,72.754677 30.6334138,72.754677 C30.657033,72.754677 30.6808117,72.7540386 30.7047501,72.7526023 C31.3646503,72.7138222 31.8681533,72.1472815 31.8293732,71.4873813 L31.10851,59.2322284 C31.4860974,58.8532047 31.7400034,58.3524146 31.810063,57.7951301 L32.5582159,58.543283 C33.0251731,59.0103998 33.6534747,59.2687742 34.3079489,59.2687742 C34.3760933,59.2687742 34.4447166,59.2659016 34.5133398,59.2601564 C35.2402674,59.200151 35.9001676,58.825117 36.3240358,58.2317654 L41.8427805,50.5057462 C42.1319556,50.1011883 42.1405734,49.5598627 41.8648038,49.1460486 L39.9953791,46.3419115 C39.5748622,45.7107373 38.9221435,45.3337883 38.2279317,45.2517596 L38.2279317,41.1324502 C38.7280834,40.7422552 39.2097228,40.321898 39.6693389,39.8705805 C42.8646284,36.7332218 44.6244155,32.5393844 44.6244155,28.0619574 L44.6244155,23.092039 L45.1802637,20.8683269 C45.6601476,18.9491105 45.9035207,16.9722824 45.9035207,14.9927414 L45.9035207,5.03487107 C45.9038399,2.2585025 43.6451778,0 40.8691284,0 Z M21.9011865,56.8503636 C21.8938454,56.8577047 21.873418,56.876217 21.8362338,56.874302 C21.7982516,56.8711102 21.7821331,56.8486082 21.7759092,56.8399904 L16.7375271,49.7861598 L18.148772,47.6692126 C18.1735083,47.632188 18.2226617,47.6210168 18.2611226,47.6451147 L26.166041,52.5858283 L21.9011865,56.8503636 Z M29.3554257,57.5678754 L26.796896,57.5678754 C26.7515727,57.5678754 26.7145481,57.5310104 26.7145481,57.4855276 L26.7145481,55.4228407 L28.0761608,54.0612279 L29.4377736,55.4228407 L29.4377736,57.4855276 L29.4379331,57.4855276 C29.4379331,57.5308508 29.4010681,57.5678754 29.3554257,57.5678754 Z M28.0763204,50.9569041 L20.3182239,46.1079542 L20.3182239,42.6013067 C22.5505538,43.8363654 25.0835493,44.5583457 27.7668775,44.6074991 C27.8714082,44.6094141 27.9754602,44.6103717 28.0796718,44.6103717 C30.8277931,44.6102121 33.4729796,43.945205 35.834417,42.6882826 L35.834417,46.1050816 C35.834417,46.1060391 35.8345765,46.1071562 35.8345765,46.1081137 L28.0763204,50.9569041 Z M39.4149541,49.7863193 L34.3764125,56.8403095 C34.3703481,56.8487677 34.3542296,56.8712698 34.3164071,56.8744616 C34.2763503,56.8765362 34.2587955,56.8578643 34.2514544,56.8505232 L29.9865999,52.5859879 L37.8915182,47.6452743 C37.928862,47.6219743 37.9792921,47.6328264 38.0037092,47.6693722 L39.4149541,49.7863193 Z M43.510006,14.9927414 C43.510006,16.7766264 43.2907308,18.5581176 42.8580852,20.287902 L42.2664891,22.6546058 C42.2428699,22.7495612 42.2307412,22.8469104 42.2307412,22.9447385 L42.2307412,28.0617978 C42.2307412,31.8916129 40.7254984,35.4786932 37.9922188,38.1623406 C35.2598968,40.8453497 31.638824,42.2883528 27.8104453,42.2138247 C20.1520918,42.0737057 13.9215805,35.4967268 13.9215805,27.5527091 L13.9215805,22.9447385 C13.9215805,22.8469104 13.9096113,22.7494016 13.8858326,22.6546058 L13.2942364,20.2877424 C12.8615908,18.5576388 12.6423157,16.7761476 12.6423157,14.9927414 L12.6423157,11.4311953 C12.6423157,8.08206205 15.2574994,5.24824147 18.5957806,4.97981289 C18.9039468,4.95507661 19.1904089,4.81208493 19.3954807,4.58100016 C20.6283052,3.1909806 22.3933587,2.39383391 24.2380471,2.39383391 L40.8691284,2.39383391 C42.3252178,2.39383391 43.510006,3.57862211 43.510006,5.03487107 L43.510006,14.9927414 Z" id="Shape" fill-rule="nonzero"></path>
                    <path d="M10.6966075,62.2664927 L9.95755113,60.7880608 C9.66199244,60.1967839 8.94304432,59.9569217 8.35176734,60.2527996 C7.76049036,60.5483583 7.5207878,61.2671468 7.81650608,61.8585834 L8.5555624,63.3370152 C8.82622522,63.8783408 8.96937649,64.4844596 8.96937649,65.08994 L8.96937649,71.5576004 C8.96937649,72.2187773 9.50511652,72.7545174 10.1662934,72.7545174 C10.8274704,72.7545174 11.3632104,72.2187773 11.3632104,71.5576004 L11.3632104,65.08994 C11.3632104,64.114692 11.132764,63.138327 10.6966075,62.2664927 Z" id="Shape" fill-rule="nonzero"></path>
                    <path d="M52.382512,51.1715512 C43.963079,51.1715512 37.1135222,58.0212676 37.1135222,66.440541 C37.1135222,74.8599741 43.963079,81.7096905 52.382512,81.7096905 C60.8019451,81.7096905 67.6516614,74.8599741 67.6516614,66.440541 C67.6516614,58.021108 60.8019451,51.1715512 52.382512,51.1715512 Z M52.382512,79.3156969 C45.2831986,79.3156969 39.5073561,73.5398545 39.5073561,66.4403815 C39.5073561,59.3409084 45.283039,53.5652256 52.382512,53.5652256 C59.481985,53.5652256 65.2578275,59.3409084 65.2578275,66.4403815 C65.2578275,73.5398545 59.4821446,79.3156969 52.382512,79.3156969 Z" id="Shape" fill-rule="nonzero"></path>
                    <path d="M57.28125,68.09375 L54,71.21875 C53.8124991,71.4062509 53.5729181,71.5 53.28125,71.5 C53.0104153,71.5 52.7812509,71.4062509 52.59375,71.21875 L49.28125,68.09375 C49.0937491,67.9062491 49,67.682293 49,67.421875 C49,67.161457 49.0937491,66.9375009 49.28125,66.75 C49.4687509,66.5624991 49.7083319,66.46875 50,66.46875 C50.2916681,66.46875 50.5312491,66.5624991 50.71875,66.75 L52.28125,68.25 L52.28125,61.46875 C52.28125,61.1979153 52.3802073,60.9687509 52.578125,60.78125 C52.7760427,60.5937491 53.0104153,60.5 53.28125,60.5 C53.5520847,60.5 53.7864573,60.5937491 53.984375,60.78125 C54.1822927,60.9687509 54.28125,61.1979153 54.28125,61.46875 L54.28125,68.25 L55.84375,66.75 C56.0312509,66.5624991 56.2708319,66.46875 56.5625,66.46875 C56.8541681,66.46875 57.0937491,66.5624991 57.28125,66.75 C57.4687509,66.9375009 57.5625,67.161457 57.5625,67.421875 C57.5625,67.682293 57.4687509,67.9062491 57.28125,68.09375 Z" id="" transform="translate(53.281250, 66.000000) rotate(-90.000000) translate(-53.281250, -66.000000) "></path>
                </g>
            </g>
        </g>
    </g>
</svg>