<svg id="Layer_1" data-name="Layer 1" xmlns="http://www.w3.org/2000/svg" viewBox="0 0 356.29 356.29"><title>Freeze Account</title><circle cx="178.15" cy="178.15" r="170.35" style="fill:none;stroke:#fff;stroke-miterlimit:10;stroke-width:15.582170844078064px"/><rect x="-480.59" y="13.08" width="14.85" height="341.02" transform="translate(635.55 381.91) rotate(45)" style="fill:#fff"/><path d="M-508.55,195a76.79,76.79,0,0,0-60.33,51l-4.81,14.16Z" transform="translate(644.33 -6.44)" style="fill:#fff"/><path d="M-363.46,245.93a76.87,76.87,0,0,0-66-51.71c-10.08,10.67-22.55,17.44-36.68,17.44a43.5,43.5,0,0,1-8.88-.93L-546.28,282h174a15.14,15.14,0,0,0,12.3-6.32A15.14,15.14,0,0,0-358,262Z" transform="translate(644.33 -6.44)" style="fill:#fff"/><path d="M-419.24,105.42c-14-56.66-95.85-51-95.85,17.43,0,21.51,7.83,43.95,19.89,58.54Z" transform="translate(644.33 -6.44)" style="fill:#fff"/><path d="M-461.64,197.11c15.59-2.5,29.05-17.64,37-37Z" transform="translate(644.33 -6.44)" style="fill:#fff"/></svg>