<svg id="Layer_1" data-name="Layer 1" xmlns="http://www.w3.org/2000/svg" viewBox="0 0 361.69 356.55"><title>Fund keeper</title><path d="M-386.05,774.39a63.7,63.7,0,0,0-54.71-42.85c-8.35,8.84-18.69,14.45-30.4,14.45s-22-5.61-30.39-14.45a63.7,63.7,0,0,0-54.73,42.85l-4.52,13.3A12.55,12.55,0,0,0-559.12,799a12.54,12.54,0,0,0,10.19,5.23H-393.4A12.54,12.54,0,0,0-383.21,799a12.54,12.54,0,0,0,1.67-11.33Z" transform="translate(647.03 -556.91)" style="fill:#fff"/><path d="M-511.71,672.4c0,29.83,18.16,61.85,40.55,61.85s40.56-32,40.56-61.85C-430.6,610.56-511.71,610.43-511.71,672.4Z" transform="translate(647.03 -556.91)" style="fill:#fff"/><path d="M-618.78,688.5a7.25,7.25,0,0,0,5.8-.15l57.32-26.05a7.37,7.37,0,0,0,3.45-9.83,7.23,7.23,0,0,0-9.47-3.52l-40.15,18.27c19.16-57.32,72.51-95.63,133.94-95.63,64.37,0,120.66,43,136.88,104.58a7.35,7.35,0,0,0,9,5.21,7.35,7.35,0,0,0,5.21-9c-17.91-68-80-115.52-151-115.52-67.74,0-126.68,42.27-148,105.54l-16.88-42.2a7.38,7.38,0,0,0-9.25-4.7,7.38,7.38,0,0,0-4.7,9.25,4.52,4.52,0,0,0,.37.88l23.41,58.71A7.3,7.3,0,0,0-618.78,688.5Z" transform="translate(647.03 -556.91)" style="fill:#fff"/><path d="M-313.58,781.86a7.25,7.25,0,0,0-5.8.15l-57.32,26.05a7.37,7.37,0,0,0-3.45,9.83,7.23,7.23,0,0,0,9.47,3.52l40.15-18.27c-19.16,57.32-72.51,95.63-133.94,95.63-64.37,0-120.66-43-136.88-104.58a7.35,7.35,0,0,0-9-5.21,7.35,7.35,0,0,0-5.21,9c17.91,68,80,115.52,151,115.52,67.74,0,126.68-42.27,148-105.54l16.88,42.2a7.38,7.38,0,0,0,9.25,4.7,7.38,7.38,0,0,0,4.7-9.25,4.52,4.52,0,0,0-.37-.88L-309.47,786A7.3,7.3,0,0,0-313.58,781.86Z" transform="translate(647.03 -556.91)" style="fill:#fff"/></svg>