<?xml version="1.0" encoding="UTF-8"?>
<svg width="27px" height="20px" viewBox="0 0 27 20" version="1.1" xmlns="http://www.w3.org/2000/svg" xmlns:xlink="http://www.w3.org/1999/xlink">
    <!-- Generator: Sketch 45.2 (43514) - http://www.bohemiancoding.com/sketch -->
    <title>funding</title>
    <desc>Created with Sketch.</desc>
    <defs></defs>
    <g id="Hi-fi" stroke="none" stroke-width="1" fill="none" fill-rule="evenodd">
        <g id="3.4-Prize-Payout-1024x700" transform="translate(-24.000000, -470.000000)" fill-rule="nonzero" fill="#FFFFFF">
            <g id="Group-11">
                <g id="Group-9" transform="translate(24.000000, 180.000000)">
                    <g id="funding" transform="translate(13.500000, 300.110000) rotate(-90.000000) translate(-13.500000, -300.110000) translate(4.000000, 287.000000)">
                        <path d="M10.1797292,12.4586967 L10.1797292,12.1008648 C10.1797292,11.7412099 9.88267277,11.4497878 9.51606429,11.4497878 C9.1494558,11.4497878 8.85239939,11.7412099 8.85239939,12.1008648 L8.85239939,12.4757984 C7.77274935,12.7716478 6.97803276,13.7463535 6.97803276,14.9006696 C6.97803276,16.0548989 7.77266086,17.029431 8.85239939,17.3252804 L8.85239939,19.6396422 C8.36854344,19.3799927 7.91884411,18.9468094 7.7512466,18.7551323 C7.51374306,18.4815064 7.09501476,18.448258 6.81574457,18.6813436 C6.53665136,18.9144292 6.50293719,19.3253022 6.74052922,19.5991018 C6.855299,19.7314006 7.74222076,20.7202564 8.85239939,21.0458817 L8.85239939,21.4320138 C8.85239939,21.7916687 9.1494558,22.0830908 9.51606429,22.0830908 C9.88267277,22.0830908 10.1797292,21.7916687 10.1797292,21.4320138 L10.1797292,21.0702754 C11.2833596,20.7900519 12.1009948,19.8034532 12.1009948,18.6328167 C12.1009948,17.4621802 11.2833596,16.4755815 10.1797292,16.1954448 L10.1797292,13.8253508 C10.6852648,14.0284 11.136203,14.3995139 11.3106142,14.5744366 C11.5656384,14.8315686 11.9847207,14.837819 12.247709,14.5882395 C12.5112282,14.3382259 12.5181303,13.9260507 12.2631945,13.6676166 C12.153734,13.5565862 11.2965445,12.7172177 10.1797292,12.4586967 Z M8.30536255,14.9006696 C8.30536255,14.4807683 8.52269068,14.1100885 8.85239939,13.8916739 L8.85239939,15.9094917 C8.52269068,15.6910771 8.30536255,15.3204841 8.30536255,14.9006696 Z M10.773665,18.6328167 C10.773665,19.0718162 10.5351881,19.4558648 10.1797292,19.6694181 L10.1797292,17.5962153 C10.5351881,17.8098553 10.773665,18.193904 10.773665,18.6328167 Z" id="Shape" transform="translate(9.516097, 16.766439) rotate(-90.000000) translate(-9.516097, -16.766439) "></path>
                        <path d="M9.71755395,9.6155374 C5.71043382,9.6155374 2.45042338,12.8137145 2.45042338,16.7448307 C2.45042338,20.6759469 5.71043382,23.874124 9.71755395,23.874124 C13.7246741,23.874124 16.9846845,20.6759469 16.9846845,16.7448307 C16.9846845,12.8137145 13.7246741,9.6155374 9.71755395,9.6155374 Z M9.71755395,22.57197 C6.44232346,22.57197 3.77775317,19.9579392 3.77775317,16.7448307 C3.77775317,13.5317222 6.44232346,10.9176914 9.71755395,10.9176914 C12.9927844,10.9176914 15.6573547,13.5317222 15.6573547,16.7448307 C15.6573547,19.9579392 12.9927844,22.57197 9.71755395,22.57197 Z" id="Shape"></path>
                        <path d="M3.80272284,4.4088477 C4.16933132,4.4088477 4.46638773,4.11742563 4.46638773,3.75777069 L4.46638773,2.318196 C4.46638773,1.95854106 4.16933132,1.66711899 3.80272284,1.66711899 C3.43611435,1.66711899 3.13905794,1.95854106 3.13905794,2.318196 L3.13905794,3.75777069 C3.13905794,4.11742563 3.43611435,4.4088477 3.80272284,4.4088477 Z" id="Shape"></path>
                        <path d="M18.3131091,10.3028045 C17.9465006,10.3028045 17.6494442,10.5942266 17.6494442,10.9538815 L17.6494442,11.9745966 C16.8867605,10.718018 15.830737,9.6519879 14.5744636,8.8683516 L14.5744636,6.06793914 C14.5744636,5.7082842 14.2774071,5.41686213 13.9107987,5.41686213 C13.5441902,5.41686213 13.2471338,5.7082842 13.2471338,6.06793914 L13.2471338,8.17899126 C12.0995244,7.6932878 10.835641,7.4235683 9.50848821,7.4235683 C8.72571759,7.4235683 7.96524612,7.51784425 7.23724997,7.69432953 L7.23724997,5.37528001 C7.23724997,5.01562506 6.94019357,4.72420299 6.57358508,4.72420299 C6.2069766,4.72420299 5.90992019,5.01562506 5.90992019,5.37528001 L5.90992019,8.12117562 C5.34456619,8.34992068 4.80673216,8.63075189 4.30243533,8.95776618 L4.30243533,6.72761037 C4.30243533,6.36795543 4.00537893,6.07653336 3.63877044,6.07653336 C3.27216195,6.07653336 2.97510555,6.36795543 2.97510555,6.72761037 L2.97510555,9.99532251 C2.35223392,10.5786875 1.81059488,11.2446959 1.3675322,11.9745966 L1.3675322,6.63507063 C1.3675322,6.27541568 1.0704758,5.98399361 0.70386731,5.98399361 C0.337258824,5.98399361 0.0402024183,6.27541568 0.0402024183,6.63507063 L0.0402024183,16.7122671 C0.0402024183,21.8340729 4.28765773,26.0009658 9.50848821,26.0009658 C14.7293187,26.0009658 18.976774,21.8340729 18.976774,16.7122671 L18.976774,10.9538815 C18.976774,10.5942266 18.6797176,10.3028045 18.3131091,10.3028045 Z M9.50848821,24.6988118 C5.01963586,24.6988118 1.3675322,21.1160652 1.3675322,16.7122671 C1.3675322,12.3084689 5.01954737,8.72572233 9.50848821,8.72572233 C13.9974291,8.72572233 17.6494442,12.3084689 17.6494442,16.7122671 C17.6494442,21.1160652 13.9973406,24.6988118 9.50848821,24.6988118 Z" id="Shape"></path>
                        <path d="M18.2640486,5.94703659 C17.8974401,5.94703659 17.6003837,6.23845867 17.6003837,6.59811361 L17.6003837,8.0376883 C17.6003837,8.39734324 17.8974401,8.68876531 18.2640486,8.68876531 C18.6306571,8.68876531 18.9277135,8.39734324 18.9277135,8.0376883 L18.9277135,6.59811361 C18.9277135,6.23845867 18.6306571,5.94703659 18.2640486,5.94703659 Z" id="Shape"></path>
                        <path d="M14.1322413,4.1031393 C14.4988497,4.1031393 14.7959061,3.81171723 14.7959061,3.45206229 L14.7959061,2.0124876 C14.7959061,1.65283266 14.4988497,1.36141059 14.1322413,1.36141059 C13.7656328,1.36141059 13.4685764,1.65283266 13.4685764,2.0124876 L13.4685764,3.45206229 C13.4685764,3.81171723 13.7656328,4.1031393 14.1322413,4.1031393 Z" id="Shape"></path>
                        <path d="M9.65611661,5.8485092 C10.0227251,5.8485092 10.3197815,5.55708713 10.3197815,5.19743218 L10.3197815,2.318196 C10.3197815,1.95854106 10.0227251,1.66711899 9.65611661,1.66711899 C9.28950812,1.66711899 8.99245171,1.95854106 8.99245171,2.318196 L8.99245171,5.19743218 C8.99245171,5.55708713 9.28950812,5.8485092 9.65611661,5.8485092 Z" id="Shape"></path>
                        <path d="M6.55726108,2.8803057 C6.92386957,2.8803057 7.22092597,2.58888363 7.22092597,2.22922868 L7.22092597,0.789653998 C7.22092597,0.429999055 6.92386957,0.138576983 6.55726108,0.138576983 C6.19065259,0.138576983 5.89359619,0.429999055 5.89359619,0.789653998 L5.89359619,2.22922868 C5.89359619,2.58888363 6.19065259,2.8803057 6.55726108,2.8803057 Z" id="Shape"></path>
                    </g>
                </g>
            </g>
        </g>
    </g>
</svg>