<?xml version="1.0" encoding="UTF-8"?>
<svg width="16px" height="16px" viewBox="0 0 16 16" version="1.1" xmlns="http://www.w3.org/2000/svg" xmlns:xlink="http://www.w3.org/1999/xlink">
    <!-- Generator: Sketch 46.2 (44496) - http://www.bohemiancoding.com/sketch -->
    <title>Group 2</title>
    <desc>Created with Sketch.</desc>
    <defs></defs>
    <g id="QNT-QNTR" stroke="none" stroke-width="1" fill="none" fill-rule="evenodd">
        <g id="Convert5" transform="translate(-21.000000, -302.000000)">
            <g id="Group-2" transform="translate(21.000000, 302.000000)">
                <g id="Capa_1" fill="#FFFFFF">
                    <path d="M7.99611077,0.738461538 C9.58429538,0.738461538 11.09504,1.24588308 12.3431877,2.18323692 L11.37216,2.18323692 L11.37216,2.92169846 L13.7482831,2.92169846 L13.7482831,0.545575385 L13.0098215,0.545575385 L13.0098215,1.76644923 C11.5932554,0.622178462 9.84211692,0 7.99611077,0 C3.58705231,0 0,3.58705231 0,7.99611077 L0.738461538,7.99611077 C0.738461538,3.99424 3.99424,0.738461538 7.99611077,0.738461538 L7.99611077,0.738461538 Z" id="Shape"></path>
                    <path d="M15.25376,7.99611077 C15.25376,11.9979815 11.9979815,15.25376 7.99611077,15.25376 C6.45297231,15.25376 4.97870769,14.7729231 3.74966154,13.8831754 L4.71374769,13.8831754 L4.71374769,13.1447138 L2.33762462,13.1447138 L2.33762462,15.5208369 L3.07608615,15.5208369 L3.07608615,14.2997662 C4.47650462,15.3962831 6.19357538,15.9922215 7.99611077,15.9922215 C12.4052185,15.9922215 15.9922215,12.4052185 15.9922215,7.99611077 L15.25376,7.99611077 L15.25376,7.99611077 Z" id="Shape"></path>
                </g>
                <g id="Group-4" transform="translate(4.000000, 3.000000)" fill="#A5D7EB">
                    <polygon id="Shape" points="1.97175071 3.41507118 4 2.25503191 4 8.8817842e-16 -8.8817842e-16 2.28767796 -8.8817842e-16 7 1.97175071 5.87457045"></polygon>
                    <polygon id="Shape" points="6.02824929 3.74840274 6.02824929 5.68955431 8 7 8 2.51096913 4 -8.8817842e-16 4 2.47513663"></polygon>
                    <polygon id="Shape" points="3.9713901 6.98412815 2.01068664 6 -4.4408921e-16 7.00694851 3.9713901 9 6 7.98208016 4.00319758 6.99839087"></polygon>
                    <polygon id="Shape" points="7.40063477 7.04375591 5.52807617 5.91816462 4.0012207 5 4 6.73675497 4.03173828 6.75496689 5.96313477 7.84768212 8 9 8 7.40397351"></polygon>
                </g>
            </g>
        </g>
    </g>
</svg>