<?xml version="1.0" encoding="UTF-8"?>
<svg width="23px" height="21px" viewBox="0 0 23 21" version="1.1" xmlns="http://www.w3.org/2000/svg" xmlns:xlink="http://www.w3.org/1999/xlink">
    <!-- Generator: Sketch 45.2 (43514) - http://www.bohemiancoding.com/sketch -->
    <title>id-card</title>
    <desc>Created with Sketch.</desc>
    <defs></defs>
    <g id="Hi-fi" stroke="none" stroke-width="1" fill="none" fill-rule="evenodd">
        <g id="3.4-Prize-Payout-1024x700" transform="translate(-26.000000, -262.000000)" fill-rule="nonzero" fill="#FFFFFF">
            <g id="Group-11">
                <g id="Group-9" transform="translate(24.000000, 180.000000)">
                    <g id="id-card" transform="translate(2.000000, 82.000000)">
                        <path d="M8.56851884,4.25980588 L11.0383259,6.08403963 C11.1410308,6.16229095 11.2632985,6.1965259 11.3855661,6.1965259 C11.5078338,6.1965259 11.6301015,6.15740024 11.7328063,6.08403963 L14.2026134,4.25980588 C14.3542253,4.14731962 14.4422581,3.97614487 14.4422581,3.7854073 L14.4422581,0.626010509 C14.4422581,0.30322384 14.1781599,0.0391256568 13.8553732,0.0391256568 L8.92064975,0.0391256568 C8.59786308,0.0391256568 8.3337649,0.30322384 8.3337649,0.626010509 L8.3337649,3.7854073 C8.3337649,3.97125416 8.42179763,4.14731962 8.56851884,4.25980588 Z M9.5075346,1.21289536 L13.2782698,1.21289536 L13.2782698,3.48707416 L11.3904568,4.88092569 L9.5075346,3.49196487 L9.5075346,1.21289536 Z" id="Shape"></path>
                        <path d="M20.3257787,2.53338628 L15.9485959,2.53338628 C15.6258092,2.53338628 15.361711,2.79748446 15.361711,3.12027113 C15.361711,3.4430578 15.6258092,3.70715598 15.9485959,3.70715598 L20.3257787,3.70715598 C21.0349312,3.70715598 21.607144,4.28425942 21.607144,4.98852124 L21.607144,17.9391136 C21.607144,18.6482662 21.0300405,19.2204789 20.3257787,19.2204789 L2.45513496,19.2204789 C1.74598243,19.2204789 1.1737697,18.6433755 1.1737697,17.9391136 L1.1737697,4.98852124 C1.1737697,4.27936871 1.75087314,3.70715598 2.45513496,3.70715598 L6.82742711,3.70715598 C7.15021378,3.70715598 7.41431196,3.4430578 7.41431196,3.12027113 C7.41431196,2.79748446 7.15021378,2.53338628 6.82742711,2.53338628 L2.45513496,2.53338628 C1.1004091,2.53338628 0,3.63379537 0,4.98852124 L0,17.9391136 C0,19.2938395 1.1004091,20.3942486 2.45513496,20.3942486 L20.3257787,20.3942486 C21.6805046,20.3942486 22.7809137,19.2938395 22.7809137,17.9391136 L22.7809137,4.98852124 C22.7809137,3.63379537 21.6805046,2.53338628 20.3257787,2.53338628 Z" id="Shape"></path>
                        <path d="M4.25002447,8.6810051 C4.25002447,9.81075844 5.1694774,10.7302114 6.29923074,10.7302114 C7.42898408,10.7302114 8.34843702,9.81075844 8.34843702,8.6810051 C8.34843702,7.55125176 7.42898408,6.63179883 6.29923074,6.63179883 C5.1694774,6.63179883 4.25002447,7.55125176 4.25002447,8.6810051 Z M7.17466732,8.6810051 C7.17466732,9.1651851 6.78341075,9.55644167 6.29923074,9.55644167 C5.81505074,9.55644167 5.42379417,9.1651851 5.42379417,8.6810051 C5.42379417,8.1968251 5.81505074,7.80556853 6.29923074,7.80556853 C6.78341075,7.80556853 7.17466732,8.1968251 7.17466732,8.6810051 Z" id="Shape"></path>
                        <path d="M6.29923074,11.1508122 C5.14013316,11.1508122 4.2011174,11.68879 3.5848883,12.706057 C3.13983396,13.4396631 2.86106365,14.4324767 2.74857739,15.6551534 C2.71923315,15.9779401 2.9588778,16.2616011 3.28166446,16.2909453 C3.60445113,16.3202896 3.88811214,16.0806449 3.91745639,15.7578583 C4.12775679,13.4787888 4.92983276,12.3245819 6.29923074,12.3245819 C7.66862873,12.3245819 8.4707047,13.4787888 8.6810051,15.7578583 C8.71034934,16.0610821 8.96466611,16.2909453 9.26299925,16.2909453 C9.28256207,16.2909453 9.2972342,16.2909453 9.31679702,16.2860546 C9.63958369,16.2567104 9.87922834,15.9730494 9.8498841,15.6502627 C9.73739784,14.4275859 9.45373682,13.4396631 9.01357318,12.7011663 C8.39734409,11.68879 7.45832833,11.1508122 6.29923074,11.1508122 Z" id="Shape"></path>
                        <path d="M18.6482662,7.72731722 L12.0947187,7.72731722 C11.771932,7.72731722 11.5078338,7.9914154 11.5078338,8.31420207 C11.5078338,8.63698874 11.771932,8.90108692 12.0947187,8.90108692 L18.6482662,8.90108692 C18.9710528,8.90108692 19.235151,8.63698874 19.235151,8.31420207 C19.235151,7.9914154 18.9710528,7.72731722 18.6482662,7.72731722 Z" id="Shape"></path>
                        <path d="M19.235151,12.5153195 C19.235151,12.1925328 18.9710528,11.9284346 18.6482662,11.9284346 L12.0947187,11.9284346 C11.771932,11.9284346 11.5078338,12.1925328 11.5078338,12.5153195 C11.5078338,12.8381061 11.771932,13.1022043 12.0947187,13.1022043 L18.6482662,13.1022043 C18.9710528,13.1022043 19.235151,12.8429968 19.235151,12.5153195 Z" id="Shape"></path>
                        <path d="M12.0947187,14.0216573 C11.771932,14.0216573 11.5078338,14.2857554 11.5078338,14.6085421 C11.5078338,14.9313288 11.771932,15.195427 12.0947187,15.195427 L15.3714924,15.195427 C15.6942791,15.195427 15.9583773,14.9313288 15.9583773,14.6085421 C15.9583773,14.2857554 15.6942791,14.0216573 15.3714924,14.0216573 L12.0947187,14.0216573 Z" id="Shape"></path>
                        <path d="M18.6482662,9.82053986 L12.0947187,9.82053986 C11.771932,9.82053986 11.5078338,10.084638 11.5078338,10.4074247 C11.5078338,10.7302114 11.771932,10.9943096 12.0947187,10.9943096 L18.6482662,10.9943096 C18.9710528,10.9943096 19.235151,10.7302114 19.235151,10.4074247 C19.235151,10.084638 18.9710528,9.82053986 18.6482662,9.82053986 Z" id="Shape"></path>
                    </g>
                </g>
            </g>
        </g>
    </g>
</svg>