<svg id="Layer_1" data-name="Layer 1" xmlns="http://www.w3.org/2000/svg" xmlns:xlink="http://www.w3.org/1999/xlink" viewBox="0 0 599.09 191.62"><defs><clipPath id="clip-path" transform="translate(1167.21 316.79)"><path d="M-1113.54-239.93a7.07,7.07,0,0,0,7.05,7.05,7.07,7.07,0,0,0,7.05-7.05,7.07,7.07,0,0,0-7.05-7.05,7.14,7.14,0,0,0-7.05,7.05" style="fill:none"/></clipPath><linearGradient id="linear-gradient" x1="-317.39" y1="161.88" x2="-315.16" y2="161.88" gradientTransform="matrix(22.62, 39.45, 39.45, -22.62, 849.22, 16253.59)" gradientUnits="userSpaceOnUse"><stop offset="0" stop-color="#acacac"/><stop offset="1" stop-color="#898989"/></linearGradient><clipPath id="clip-path-2" transform="translate(1167.21 316.79)"><path d="M-1088-195.7a7.07,7.07,0,0,0,7.05,7.05,7,7,0,0,0,7.05-7.05,7.07,7.07,0,0,0-7.05-7.05,7.07,7.07,0,0,0-7.05,7.05" style="fill:none"/></clipPath><linearGradient id="linear-gradient-2" x1="-319.97" y1="159.96" x2="-317.73" y2="159.96" gradientTransform="matrix(23.41, 34.2, 34.2, -23.41, 2052.31, 14730.33)" gradientUnits="userSpaceOnUse"><stop offset="0" stop-color="#1c4694"/><stop offset="1" stop-color="#1569b3"/></linearGradient><clipPath id="clip-path-3" transform="translate(1167.21 316.79)"><path d="M-1095.13-288.22A14.18,14.18,0,0,0-1080.9-274a14.18,14.18,0,0,0,14.22-14.22,14.18,14.18,0,0,0-14.22-14.22,14.26,14.26,0,0,0-14.22,14.22" style="fill:none"/></clipPath><linearGradient id="linear-gradient-3" x1="-327.3" y1="159.5" x2="-325.07" y2="159.5" gradientTransform="matrix(27.62, 23.15, 23.15, -27.62, 5430.55, 12006.18)" gradientUnits="userSpaceOnUse"><stop offset="0" stop-color="#f8bf14"/><stop offset="1" stop-color="#ee8422"/></linearGradient><clipPath id="clip-path-4" transform="translate(1167.21 316.79)"><path d="M-1040.62-194.27A14.18,14.18,0,0,0-1026.39-180a14.18,14.18,0,0,0,14.22-14.22,14.18,14.18,0,0,0-14.22-14.22,14.26,14.26,0,0,0-14.22,14.22" style="fill:none"/></clipPath><linearGradient id="linear-gradient-4" x1="-317.39" y1="162.46" x2="-315.16" y2="162.46" gradientTransform="matrix(22.62, 39.46, 39.46, -22.62, 867.4, 16245.68)" xlink:href="#linear-gradient"/><clipPath id="clip-path-5" transform="translate(1167.21 316.79)"><path d="M-1097.28-162.11a16.33,16.33,0,0,0,16.38,16.38,16.33,16.33,0,0,0,16.38-16.38,16.33,16.33,0,0,0-16.38-16.38,16.33,16.33,0,0,0-16.38,16.38" style="fill:none"/></clipPath><linearGradient id="linear-gradient-5" x1="-317.39" y1="161.68" x2="-315.16" y2="161.68" gradientTransform="matrix(22.62, 39.45, 39.45, -22.62, 842.79, 16257.78)" xlink:href="#linear-gradient"/><clipPath id="clip-path-6" transform="translate(1167.21 316.79)"><path d="M-1042.77-257.26a16.33,16.33,0,0,0,16.38,16.38A16.33,16.33,0,0,0-1010-257.26a16.33,16.33,0,0,0-16.38-16.38,16.4,16.4,0,0,0-16.38,16.38" style="fill:none"/></clipPath><linearGradient id="linear-gradient-6" x1="-327.3" y1="159.67" x2="-325.07" y2="159.67" gradientTransform="matrix(27.61, 23.14, 23.14, -27.61, 5433.42, 12001.16)" xlink:href="#linear-gradient-3"/><clipPath id="clip-path-7" transform="translate(1167.21 316.79)"><path d="M-1151.91-256.67a16.33,16.33,0,0,0,16.38,16.38,16.33,16.33,0,0,0,16.38-16.38A16.33,16.33,0,0,0-1135.53-273a16.33,16.33,0,0,0-16.38,16.38" style="fill:none"/></clipPath><linearGradient id="linear-gradient-7" x1="-319.97" y1="159.82" x2="-317.74" y2="159.82" gradientTransform="matrix(23.41, 34.19, 34.19, -23.41, 2048.13, 14729.09)" xlink:href="#linear-gradient-2"/><clipPath id="clip-path-8" transform="translate(1167.21 316.79)"><path d="M-1149.76-193.67a14.18,14.18,0,0,0,14.22,14.22,14.18,14.18,0,0,0,14.22-14.22,14.18,14.18,0,0,0-14.22-14.22,14.18,14.18,0,0,0-14.22,14.22" style="fill:none"/></clipPath><linearGradient id="linear-gradient-8" x1="-319.97" y1="159.34" x2="-317.74" y2="159.34" gradientTransform="matrix(23.4, 34.19, 34.19, -23.4, 2034.73, 14735.16)" xlink:href="#linear-gradient-2"/><clipPath id="clip-path-9" transform="translate(1167.21 316.79)"><path d="M-1088.79-254.63a7.88,7.88,0,0,0,7.89,7.89,7.88,7.88,0,0,0,7.89-7.89,8,8,0,0,0-7.89-7.89,7.81,7.81,0,0,0-7.89,7.89" style="fill:none"/></clipPath><linearGradient id="linear-gradient-9" x1="-317.39" y1="162.24" x2="-315.16" y2="162.24" gradientTransform="matrix(22.62, 39.45, 39.45, -22.62, 860.7, 16246.86)" xlink:href="#linear-gradient"/><clipPath id="clip-path-10" transform="translate(1167.21 316.79)"><path d="M-1114.37-210.4a7.88,7.88,0,0,0,7.89,7.89,7.88,7.88,0,0,0,7.89-7.89,8,8,0,0,0-7.89-7.89,7.88,7.88,0,0,0-7.89,7.89" style="fill:none"/></clipPath><linearGradient id="linear-gradient-10" x1="-319.97" y1="159.79" x2="-317.74" y2="159.79" gradientTransform="matrix(23.41, 34.19, 34.19, -23.41, 2047.27, 14729.02)" xlink:href="#linear-gradient-2"/><clipPath id="clip-path-11" transform="translate(1167.21 316.79)"><path d="M-1065-239.93a9.59,9.59,0,0,0,9.56,9.56,9.59,9.59,0,0,0,9.56-9.56,9.59,9.59,0,0,0-9.56-9.56,9.59,9.59,0,0,0-9.56,9.56" style="fill:none"/></clipPath><linearGradient id="linear-gradient-11" x1="-317.39" y1="162.42" x2="-315.16" y2="162.42" gradientTransform="matrix(22.62, 39.45, 39.45, -22.62, 866.46, 16242.68)" xlink:href="#linear-gradient"/><clipPath id="clip-path-12" transform="translate(1167.21 316.79)"><path d="M-1067.63-210.4a12.24,12.24,0,0,0,12.19,12.19,12.17,12.17,0,0,0,12.19-12.19,12.17,12.17,0,0,0-12.19-12.19,12.32,12.32,0,0,0-12.19,12.19" style="fill:none"/></clipPath><linearGradient id="linear-gradient-12" x1="-317.39" y1="162.25" x2="-315.16" y2="162.25" gradientTransform="matrix(22.62, 39.46, 39.46, -22.62, 860.72, 16249.73)" xlink:href="#linear-gradient"/><clipPath id="clip-path-13" transform="translate(1167.21 316.79)"><polygon points="-1136.85 -193.67 -1134.22 -193.67 -1134.22 -255.95 -1134.22 -256.67 -1136.73 -256.67 -1136.85 -193.67" style="fill:none"/></clipPath><linearGradient id="linear-gradient-13" x1="-319.97" y1="159.58" x2="-317.74" y2="159.58" gradientTransform="matrix(23.41, 34.19, 34.19, -23.41, 2041.49, 14733.12)" xlink:href="#linear-gradient-2"/><clipPath id="clip-path-14" transform="translate(1167.21 316.79)"><polygon points="-1081.62 -287.03 -1026.99 -256.19 -1025.8 -258.34 -1080.31 -289.3 -1081.62 -287.03" style="fill:none"/></clipPath><linearGradient id="linear-gradient-14" x1="-327.3" y1="159.58" x2="-325.07" y2="159.58" gradientTransform="matrix(27.62, 23.15, 23.15, -27.62, 5432.25, 12004.34)" xlink:href="#linear-gradient-3"/><clipPath id="clip-path-15" transform="translate(1167.21 316.79)"><polygon points="-1107.08 -241.01 -1105.77 -238.85 -1080.9 -253.2 -1056.64 -239.21 -1056.64 -209.69 -1028.9 -194.27 -1081.62 -163.31 -1080.31 -161.04 -1023.76 -194.27 -1054.13 -211.24 -1054.13 -240.65 -1080.9 -256.07 -1107.08 -241.01" style="fill:none"/></clipPath><linearGradient id="linear-gradient-15" x1="-317.39" y1="162.16" x2="-315.16" y2="162.16" gradientTransform="matrix(22.62, 39.45, 39.45, -22.62, 855.55, 16249.9)" xlink:href="#linear-gradient"/><clipPath id="clip-path-16" transform="translate(1167.21 316.79)"><polygon points="-1136.13 -194.75 -1134.93 -192.59 -1106.48 -208.97 -1081.62 -194.63 -1080.31 -196.78 -1106.48 -211.96 -1136.13 -194.75" style="fill:none"/></clipPath><linearGradient id="linear-gradient-16" x1="-319.97" y1="159.74" x2="-317.74" y2="159.74" gradientTransform="matrix(23.41, 34.19, 34.19, -23.41, 2043.62, 14731.25)" xlink:href="#linear-gradient-2"/></defs><title>LOGO</title><g id="レイヤー_1" data-name="レイヤー 1"><g style="clip-path:url(#clip-path)"><polygon points="64.31 63.83 73.87 80.45 57.14 90.01 47.7 73.28 64.31 63.83" style="fill:url(#linear-gradient)"/></g><g style="clip-path:url(#clip-path-2)"><polygon points="88.82 107.46 99.81 123.6 83.68 134.72 72.68 118.58 88.82 107.46" style="fill:url(#linear-gradient-2)"/></g><g style="clip-path:url(#clip-path-3)"><polygon points="83.8 0.36 114.52 26.06 88.7 56.78 57.98 31.08 83.8 0.36" style="fill:url(#linear-gradient-3)"/></g><g style="clip-path:url(#clip-path-4)"><polygon points="147.99 96.11 167.35 129.7 133.64 149.06 114.4 115.35 147.99 96.11" style="fill:url(#linear-gradient-4)"/></g><g style="clip-path:url(#clip-path-5)"><polygon points="94.55 124.08 116.79 162.93 77.94 185.16 55.7 146.31 94.55 124.08" style="fill:url(#linear-gradient-5)"/></g><g style="clip-path:url(#clip-path-6)"><polygon points="137.95 27.02 173.33 56.66 143.68 92.04 108.3 62.4 137.95 27.02" style="fill:url(#linear-gradient-6)"/></g><g style="clip-path:url(#clip-path-7)"><polygon points="37.65 28.45 63.35 65.98 25.82 91.8 0 54.15 37.65 28.45" style="fill:url(#linear-gradient-7)"/></g><g style="clip-path:url(#clip-path-8)"><polygon points="36.82 95.63 59.17 128.26 26.54 150.62 4.18 117.98 36.82 95.63" style="fill:url(#linear-gradient-8)"/></g><g style="clip-path:url(#clip-path-9)"><polygon points="90.25 47.46 101.01 66.1 82.24 76.86 71.6 58.22 90.25 47.46" style="fill:url(#linear-gradient-9)"/></g><g style="clip-path:url(#clip-path-10)"><polygon points="63.59 91.09 76.03 109.26 57.86 121.57 45.54 103.52 63.59 91.09" style="fill:url(#linear-gradient-10)"/></g><g style="clip-path:url(#clip-path-11)"><polygon points="116.67 59.05 129.58 81.76 106.99 94.67 93.96 72.08 116.67 59.05" style="fill:url(#linear-gradient-11)"/></g><g style="clip-path:url(#clip-path-12)"><polygon points="117.98 83.68 134.48 112.48 105.67 128.98 89.17 100.17 117.98 83.68" style="fill:url(#linear-gradient-12)"/></g><g style="clip-path:url(#clip-path-13)"><polygon points="32.16 58.93 62.4 103.04 31.2 124.32 1.08 80.21 32.16 58.93" style="fill:url(#linear-gradient-13)"/></g><g style="clip-path:url(#clip-path-14)"><polygon points="108.66 0 157.79 41.12 118.46 88.1 69.33 46.98 108.66 0" style="fill:url(#linear-gradient-14)"/></g><g style="clip-path:url(#clip-path-15)"><polygon points="122.76 24.74 184.45 132.21 80.69 191.62 19.13 84.15 122.76 24.74" style="fill:url(#linear-gradient-15)"/></g><g style="clip-path:url(#clip-path-16)"><polygon points="69.09 78.89 95.87 118.1 48.89 150.26 22 111.05 69.09 78.89" style="fill:url(#linear-gradient-16)"/></g></g><g id="レイヤー_2" data-name="レイヤー 2"><path d="M-967.75-206.11a27.92,27.92,0,0,0-3.33.12,24,24,0,0,0-3,.25c-1,.12-2,.12-3.09.25s-2.1.12-3.09.12a20.85,20.85,0,0,1-8.15-1.48,15.72,15.72,0,0,1-5.92-4.2,16.34,16.34,0,0,1-3.58-6.42,24.53,24.53,0,0,1-1.23-8.15,25.79,25.79,0,0,1,1.23-8.27,18.27,18.27,0,0,1,3.7-6.42,15.24,15.24,0,0,1,6-4.2A20.85,20.85,0,0,1-980-246a21.29,21.29,0,0,1,8.15,1.48,17.21,17.21,0,0,1,6,4.2,18.86,18.86,0,0,1,3.7,6.29,24.29,24.29,0,0,1,1.23,8,18.17,18.17,0,0,1-.49,4.44,19.65,19.65,0,0,1-1.23,4.07,16.13,16.13,0,0,1-2.1,3.46,20.56,20.56,0,0,1-2.84,2.84v.12c.49-.12,1-.25,1.73-.37m-2.47-14.32a19.91,19.91,0,0,0-.86-6.29,11,11,0,0,0-2.47-4.44,9,9,0,0,0-3.7-2.72A11.75,11.75,0,0,0-980-240a11.75,11.75,0,0,0-4.69.86,9,9,0,0,0-3.7,2.72,15.37,15.37,0,0,0-2.47,4.44,18.92,18.92,0,0,0-.86,6.29,19.91,19.91,0,0,0,.86,6.29,11,11,0,0,0,2.47,4.44,9,9,0,0,0,3.7,2.72,11.75,11.75,0,0,0,4.69.86,11.75,11.75,0,0,0,4.69-.86,9,9,0,0,0,3.7-2.72,15.37,15.37,0,0,0,2.47-4.44,19.91,19.91,0,0,0,.86-6.29" transform="translate(1167.21 316.79)" style="fill:#fff"/><path d="M-931-205.36a15.75,15.75,0,0,1-7.16-1.48,9.32,9.32,0,0,1-4.2-3.95,10.54,10.54,0,0,1-1.11-3,16,16,0,0,1-.37-3.58v-17.4h6.91v16.66a13.88,13.88,0,0,0,.25,2.47,8.15,8.15,0,0,0,.62,1.85,5.06,5.06,0,0,0,2,2,7.62,7.62,0,0,0,3.09.62,6.49,6.49,0,0,0,3.21-.74,4.63,4.63,0,0,0,2-2.1,8.26,8.26,0,0,0,.62-3.83v-16.79h6.91v17.4a11.87,11.87,0,0,1-1.23,5.8,11.14,11.14,0,0,1-1.73,2.47,11.74,11.74,0,0,1-2.47,1.85,20.9,20.9,0,0,1-3.33,1.23,18.14,18.14,0,0,1-3.95.49" transform="translate(1167.21 316.79)" style="fill:#fff"/><path d="M-885.06-209.19h0c-.49.37-1,.86-1.48,1.23s-1.23.86-1.85,1.23a7.64,7.64,0,0,1-2.35.86,9.89,9.89,0,0,1-2.84.37,13.07,13.07,0,0,1-3.83-.62,6.1,6.1,0,0,1-3-1.85,7.83,7.83,0,0,1-2-2.84,9.2,9.2,0,0,1-.74-3.83,8.94,8.94,0,0,1,.86-4.07,9.75,9.75,0,0,1,2.35-3.09,11.16,11.16,0,0,1,3.58-2,13.64,13.64,0,0,1,4.57-.62,30.34,30.34,0,0,1,3.46.25,14.75,14.75,0,0,1,2.72.62v-1.11a5.59,5.59,0,0,0-.37-2,4.7,4.7,0,0,0-1.11-1.6,4.37,4.37,0,0,0-2-1.11,9.63,9.63,0,0,0-3-.37,16.25,16.25,0,0,0-4.2.49,45.43,45.43,0,0,0-4.57,1.36v-5.43a28.2,28.2,0,0,1,4.57-1.48,22.71,22.71,0,0,1,5.06-.49,17.5,17.5,0,0,1,5.43.74,12,12,0,0,1,3.95,2.1,8.65,8.65,0,0,1,2.35,3.21,10.69,10.69,0,0,1,.74,3.95v15.55c0,1.36.12,2.59.12,3.58h-6.29Zm-.62-9.13c-.62-.12-1.48-.25-2.35-.37a18.41,18.41,0,0,0-2.59-.25,7.63,7.63,0,0,0-4.07,1,3.44,3.44,0,0,0-1.48,3.09,3.94,3.94,0,0,0,.37,1.73,4.43,4.43,0,0,0,.86,1.23,4.79,4.79,0,0,0,1.36.74,6.25,6.25,0,0,0,1.6.25,9.59,9.59,0,0,0,2-.25,7.29,7.29,0,0,0,1.73-.74,10.29,10.29,0,0,0,1.48-1,8,8,0,0,1,1.11-1Z" transform="translate(1167.21 316.79)" style="fill:#fff"/><path d="M-855.44-230.67h0a11.4,11.4,0,0,1,1.73-1.73,8.11,8.11,0,0,1,2.1-1.48,13.89,13.89,0,0,1,2.72-1,12.43,12.43,0,0,1,3.09-.37,11.46,11.46,0,0,1,3,.37,10.48,10.48,0,0,1,2.72,1.11,7.86,7.86,0,0,1,2.1,2,8.81,8.81,0,0,1,1.48,2.84,5.12,5.12,0,0,1,.37,2,15,15,0,0,1,.12,2.47v18.39H-843v-17.4a10,10,0,0,0-.12-2,3.29,3.29,0,0,0-.37-1.48,3.71,3.71,0,0,0-1.6-2,5.74,5.74,0,0,0-2.59-.62,8.4,8.4,0,0,0-3.83,1,11.53,11.53,0,0,0-3.33,2.72v19.5h-6.91v-28.39h5.8Z" transform="translate(1167.21 316.79)" style="fill:#fff"/><path d="M-802.24-206.23c-.74.25-1.73.37-2.84.62a28.21,28.21,0,0,1-3.09.25,13.13,13.13,0,0,1-5.8-1.11,6.49,6.49,0,0,1-3.21-3.33,10,10,0,0,1-.62-4.2v-14.69h-5.31v-5.68h5.31v-7.9h6.91v7.9h8.27v5.68h-8.27V-215a4.61,4.61,0,0,0,.49,2.47c.62.86,1.73,1.36,3.46,1.36a15.12,15.12,0,0,0,2.35-.25,14.35,14.35,0,0,0,2.22-.49v5.68h.12Z" transform="translate(1167.21 316.79)" style="fill:#fff"/><path d="M-771-209.19h0c-.49.37-1,.86-1.48,1.23s-1.23.86-1.85,1.23a7.64,7.64,0,0,1-2.35.86,9.89,9.89,0,0,1-2.84.37,13.07,13.07,0,0,1-3.83-.62,6.73,6.73,0,0,1-3-1.85,7.83,7.83,0,0,1-2-2.84,9.2,9.2,0,0,1-.74-3.83,8.94,8.94,0,0,1,.86-4.07,9.75,9.75,0,0,1,2.35-3.09,11.16,11.16,0,0,1,3.58-2,13.64,13.64,0,0,1,4.57-.62,30.34,30.34,0,0,1,3.46.25,14.75,14.75,0,0,1,2.72.62v-1.11a5.59,5.59,0,0,0-.37-2,4.7,4.7,0,0,0-1.11-1.6,4.37,4.37,0,0,0-2-1.11,9.63,9.63,0,0,0-3-.37,16.25,16.25,0,0,0-4.2.49,45.43,45.43,0,0,0-4.57,1.36v-5.43a28.2,28.2,0,0,1,4.57-1.48,22.71,22.71,0,0,1,5.06-.49,18.06,18.06,0,0,1,5.43.74,12,12,0,0,1,3.95,2.1,8.65,8.65,0,0,1,2.35,3.21,10.69,10.69,0,0,1,.74,3.95v15.55c0,1.36.12,2.59.12,3.58h-6.29Zm-.62-9.13c-.62-.12-1.48-.25-2.35-.37a18.41,18.41,0,0,0-2.59-.25,7.63,7.63,0,0,0-4.07,1,3.44,3.44,0,0,0-1.48,3.09,3.94,3.94,0,0,0,.37,1.73,4.43,4.43,0,0,0,.86,1.23,4.79,4.79,0,0,0,1.36.74,6.25,6.25,0,0,0,1.6.25,9.59,9.59,0,0,0,2-.25,7.29,7.29,0,0,0,1.73-.74,10.29,10.29,0,0,0,1.48-1,8,8,0,0,1,1.11-1Z" transform="translate(1167.21 316.79)" style="fill:#fff"/><path d="M-970.47-217.46c-3.95-.37-6.42,2.22-5.68,5.8s4.81,7,9,7.41,6.66-2.47,5.55-6.29c-1-3.58-4.94-6.66-8.89-6.91" transform="translate(1167.21 316.79)" style="fill:#fff"/></g><text transform="translate(411.66 110.73)" style="font-size:54.64305114746094px;fill:#f8c014;font-family:Helvetica-Bold, Helvetica;font-weight:700;letter-spacing:0.050380233711160884em">W<tspan x="54.33" y="0" style="letter-spacing:0.08701715428862801em">allet</tspan></text></svg>