<?xml version="1.0" encoding="UTF-8"?>
<svg width="23px" height="24px" viewBox="0 0 23 24" version="1.1" xmlns="http://www.w3.org/2000/svg" xmlns:xlink="http://www.w3.org/1999/xlink">
    <!-- Generator: Sketch 45.2 (43514) - http://www.bohemiancoding.com/sketch -->
    <title>money-bag</title>
    <desc>Created with Sketch.</desc>
    <defs></defs>
    <g id="Hi-fi" stroke="none" stroke-width="1" fill="none" fill-rule="evenodd">
        <g id="3.4-Prize-Payout-1024x700" transform="translate(-26.000000, -219.000000)" fill-rule="nonzero" fill="#FFFFFF">
            <g id="Group-11">
                <g id="Group-9" transform="translate(24.000000, 180.000000)">
                    <g id="money-bag" transform="translate(2.000000, 39.000000)">
                        <path d="M15.9883359,9.79390328 L15.7209619,9.79390328 L15.547494,9.79390328 L15.28012,9.79390328 C15.0562399,9.79390328 14.874147,9.6118104 14.874147,9.38793025 L14.874147,8.97600738 C14.8741931,8.75212723 15.056286,8.57003435 15.28012,8.57003435 L16.0647614,8.57003435 C16.2464391,8.57003435 16.3943089,8.71781186 16.3943089,8.89953575 C16.3943089,9.15422594 16.6008469,9.36076391 16.8555371,9.36076391 C17.1102272,9.36076391 17.3167652,9.15422594 17.3167652,8.89953575 C17.3167652,8.21954707 16.7716858,7.66478184 16.0954792,7.64836212 L16.0954792,7.25244386 C16.0954792,6.99775367 15.8889412,6.7912157 15.634251,6.7912157 C15.3795608,6.7912157 15.1730228,6.99775367 15.1730228,7.25244386 L15.1730228,7.65228256 C14.4904974,7.70707646 13.9517368,8.2796451 13.9517368,8.97600738 L13.9517368,9.38793025 C13.9517368,10.1204067 14.5476897,10.7163596 15.2801661,10.7163596 L15.5475401,10.7163596 L15.721008,10.7163596 L15.988382,10.7163596 C16.2122621,10.7163596 16.394355,10.8984525 16.394355,11.1222865 L16.394355,11.5342555 C16.394355,11.7580895 16.2122621,11.9401824 15.988382,11.9401824 L15.2037406,11.9401824 C15.0220629,11.9401824 14.8741931,11.7924049 14.8741931,11.610681 C14.8741931,11.3559908 14.6676551,11.1494528 14.412965,11.1494528 C14.1582748,11.1494528 13.9517368,11.3559908 13.9517368,11.610681 C13.9517368,12.2907158 14.4968624,12.8454349 15.1730228,12.8618546 L15.1730228,13.2577729 C15.1730228,13.5124631 15.3795608,13.7190011 15.634251,13.7190011 C15.8889412,13.7190011 16.0954792,13.5124631 16.0954792,13.2577729 L16.0954792,12.8579342 C16.7780046,12.8031403 17.3167652,12.2306178 17.3167652,11.5342555 L17.3167652,11.1222865 C17.3167652,10.3898101 16.7208123,9.79390328 15.9883359,9.79390328 Z" id="Shape"></path>
                        <path d="M22.6877672,15.6360498 C22.4979718,15.2062313 22.1521429,14.8759919 21.7140223,14.7062599 C21.2759016,14.536528 20.7978386,14.5475052 20.3680201,14.7373928 C20.3664827,14.7380386 19.3957973,15.1856451 17.4559639,16.0802125 C17.2246118,16.1868946 17.1236029,16.4609102 17.2302388,16.6922162 C17.3369209,16.9235682 17.6109827,17.0245311 17.8422425,16.9179412 L20.7437366,15.5798722 C20.9473688,15.4909935 21.1734629,15.4862429 21.380831,15.5664505 C21.5892139,15.6472115 21.7536418,15.8042136 21.8439041,16.008676 C21.9342126,16.2131385 21.9394245,16.4404317 21.8587095,16.6488146 C21.7779485,16.8572436 21.6209464,17.0216714 21.416484,17.1119338 L15.471253,19.7369678 C14.5337606,20.15092 13.4696611,20.1268439 12.5516326,19.6707815 L10.3753275,18.5896166 C9.21127987,18.0112826 7.86172627,17.9806109 6.67272619,18.5057192 L5.03199925,14.8645073 L7.27485955,13.8742505 C8.34670768,13.4009842 9.5426723,13.3628868 10.6423786,13.7666921 L15.018742,15.3738416 C15.4096329,15.5173758 15.6179697,15.9547123 15.4831527,16.3486473 C15.3457989,16.7501003 14.9070326,16.9660934 14.5051183,16.8301695 L11.1208567,15.6854935 C10.879496,15.6038561 10.6177951,15.7333228 10.5361578,15.9746374 C10.4545204,16.215952 10.5839871,16.4776989 10.8253017,16.5593363 L14.2095633,17.7040124 C14.3885199,17.7645716 14.5707511,17.7933062 14.7501689,17.7933062 C15.4550639,17.7933062 16.115681,17.3496047 16.3559808,16.6472464 C16.6517665,15.7826281 16.1945049,14.8229507 15.3367127,14.507978 L10.9603493,12.9008284 C10.6659935,12.7927165 10.3659184,12.711033 10.063076,12.6554089 L10.063076,10.105878 C10.063076,7.59200004 12.1083001,5.546776 14.622178,5.546776 L16.3067678,5.546776 C18.8206919,5.546776 20.8659159,7.59200004 20.8659159,10.105878 L20.8659159,14.9394637 C20.8659159,15.1941539 21.0724539,15.4006918 21.3271441,15.4006918 C21.5818343,15.4006918 21.7883722,15.1941539 21.7883722,14.9394637 L21.7883722,10.105878 C21.7883722,7.44362294 19.880502,5.2188889 17.3602129,4.72629722 L17.3602129,3.33693963 L18.5255981,1.34341927 C18.5915076,1.23074123 18.6065436,1.09537076 18.5669703,0.970977526 C18.5273969,0.846584291 18.4370423,0.744745113 18.3181838,0.690735295 L16.8888377,0.0413260433 C16.7793883,-0.00839435255 16.6549028,-0.0134217395 16.5418558,0.0272585844 L15.4812616,0.408971011 L14.5405407,0.0329316908 C14.4323827,-0.0102392652 14.311956,-0.0109311074 14.2032906,0.0309022868 L12.7076199,0.60794484 C12.5831806,0.655958692 12.4856308,0.755537852 12.4400615,0.880945789 C12.3945844,1.00635373 12.4055616,1.14527565 12.4702719,1.26196637 L13.6178537,3.33135877 L13.6178537,4.71679592 C11.0733041,5.18992377 9.14061971,7.42623464 9.14061971,10.1057858 L9.14061971,12.5668992 C8.37867079,12.5597041 7.61755208,12.7144461 6.90227944,13.030249 L4.64272268,14.0278856 C4.51330206,13.8342159 4.32871855,13.6845012 4.10700617,13.5986205 C3.82233615,13.4882947 3.51169898,13.4954899 3.23353227,13.618315 L0.314419238,14.897439 C0.146670555,14.9709588 0.0383280603,15.1367242 0.0383280603,15.3198779 L0.0383280603,23.1536537 C0.0383280603,23.3138383 0.121441375,23.4625382 0.257872665,23.5465279 C0.33180754,23.5919589 0.415566574,23.6148819 0.499556222,23.6148819 C0.570677605,23.6148819 0.641983479,23.5984622 0.707524,23.565346 L6.37477279,20.7024567 C6.6480966,20.5780173 6.85800154,20.3557053 6.96666689,20.0751864 C7.05545332,19.8460021 7.06809097,19.6000291 7.00536394,19.3671089 C7.98279866,18.9354455 9.04703652,18.9595677 9.96488056,19.4156762 L12.1411856,20.4968873 C13.3052794,21.0750829 14.6547869,21.1056623 15.843787,20.5807386 L21.789018,17.9557046 C22.2188365,17.7659553 22.5490759,17.4201264 22.7188078,16.9820058 C22.8885398,16.5438852 22.8775164,16.0658683 22.6877672,15.6360498 Z M16.4377566,4.62422743 L16.3067678,4.62422743 L14.622178,4.62422743 L14.5403101,4.62422743 L14.5403101,3.6732672 L16.4377566,3.6732672 L16.4377566,4.62422743 L16.4377566,4.62422743 Z M13.5338641,1.2777865 L14.3663348,0.956725576 L15.3014749,1.330551 C15.4062659,1.37243052 15.5227722,1.37450605 15.6289008,1.33622411 L16.6779181,0.958616612 L17.4712767,1.31906642 L16.634332,2.75071863 L14.3506992,2.75071863 L13.5338641,1.2777865 Z M5.98987789,19.8640822 C5.98259049,19.8673108 5.97534921,19.87077 5.96820017,19.8743676 L0.960784384,22.4039274 L0.960784384,20.5348463 L2.25743512,19.8981209 C2.48611204,19.7858118 2.5804332,19.5094439 2.46817026,19.2808131 C2.35586121,19.0521362 2.07958554,18.9577228 1.85086249,19.070078 L0.960738261,19.5071378 L0.960738261,15.6213366 L3.60491319,14.4626392 C3.67755663,14.43063 3.74189795,14.446404 3.77376882,14.4587649 C3.80554744,14.4711258 3.86375444,14.5026277 3.89585592,14.5753634 L4.00156941,14.8147408 C4.00161553,14.8148331 4.00161553,14.8149253 4.00166166,14.8150175 C4.00170778,14.8151098 4.0017539,14.815202 4.00180002,14.8152943 L6.10250981,19.5730473 C6.15172286,19.6843877 6.10121837,19.8149153 5.98987789,19.8640822 Z" id="Shape"></path>
                    </g>
                </g>
            </g>
        </g>
    </g>
</svg>