<svg id="Layer_1" data-name="Layer 1" xmlns="http://www.w3.org/2000/svg" viewBox="0 0 352.42 349.93"><title>Move fund</title><path d="M-756.84,309.78A27.2,27.2,0,0,0-784,337a27.21,27.21,0,0,0,27.2,27.2A27.19,27.19,0,0,0-729.66,337,27.18,27.18,0,0,0-756.84,309.78Zm0,40.77A13.57,13.57,0,0,1-770.42,337a13.58,13.58,0,0,1,13.58-13.6A13.6,13.6,0,0,1-743.26,337,13.59,13.59,0,0,1-756.84,350.55Z" transform="translate(1038.36 -14.23)" style="fill:#fff"/><path d="M-899.07,309.78A27.19,27.19,0,0,0-926.24,337a27.19,27.19,0,0,0,27.17,27.2A27.2,27.2,0,0,0-871.89,337,27.18,27.18,0,0,0-899.07,309.78Zm0,40.77A13.59,13.59,0,0,1-912.66,337a13.6,13.6,0,0,1,13.59-13.6,13.61,13.61,0,0,1,13.6,13.6A13.6,13.6,0,0,1-899.07,350.55Z" transform="translate(1038.36 -14.23)" style="fill:#fff"/><path d="M-696.63,309.78V240.61l-44-64.53h-67.47l-.06,132.42h-66.91a37.2,37.2,0,0,1,12.87,23.24h68.55a37.28,37.28,0,0,1,36.85-32.18A37.28,37.28,0,0,1-720,331.75h34v-22h-10.69Zm-91.65-71V199.8l40.61.21,26.33,38.73Z" transform="translate(1038.36 -14.23)" style="fill:#fff"/><path d="M-974.82,308.51v23.26h38.93A37.15,37.15,0,0,1-923,308.51Z" transform="translate(1038.36 -14.23)" style="fill:#fff"/><polygon points="23.22 91.43 140.11 25.24 257.01 91.43 257.01 146.29 280.23 146.29 280.23 76.11 140.11 0 0 76.11 0 317.55 45.99 317.55 45.99 294.79 23.22 294.79 23.22 91.43" style="fill:#fff"/><text transform="translate(75.79 229.93)" style="font-size:189.41490173339844px;fill:#fff;font-family:GothamHTF-Ultra, Gotham HTF">$</text></svg>