<svg id="Layer_1" data-name="Layer 1" xmlns="http://www.w3.org/2000/svg" viewBox="0 0 326.27 346.37"><title>QNT admin</title><path d="M-1365.49,99.19c-.44-8.26-8.89-6.86-17.13-6.86A73,73,0,0,1-1365.49,99.19Z" transform="translate(1541.71 -24.52)" style="fill:#fff"/><path d="M-1453.57,78.48c-32,0-46.71,40.49-21.14,60.85,8.72-23.28,26.07-40,48.82-46.58A34.13,34.13,0,0,0-1453.57,78.48Z" transform="translate(1541.71 -24.52)" style="fill:#fff"/><path d="M-1519.65,133a71,71,0,0,0,5,12l-10.51,10.51a7.24,7.24,0,0,0,0,10.23l18.52,18.53a7.25,7.25,0,0,0,5.12,2.11,7.3,7.3,0,0,0,5.11-2.11l10.5-10.51c1.58.83,3.32,1.34,5,2.06,0-.12,0-.24,0-.36a107.76,107.76,0,0,1,2.74-24.31,45.72,45.72,0,0,1-21.13-38.47,45.84,45.84,0,0,1,45.78-45.79,45.68,45.68,0,0,1,39.73,23.42A79.68,79.68,0,0,1-1388,91a69,69,0,0,0-4.47-10.72L-1382,69.81a7.18,7.18,0,0,0,2.13-5.11,7.18,7.18,0,0,0-2.13-5.11l-18.51-18.51A7.2,7.2,0,0,0-1405.6,39a7.16,7.16,0,0,0-5.1,2.12l-10.54,10.52a67.7,67.7,0,0,0-12-5V31.75a7.22,7.22,0,0,0-7.22-7.23h-26.19a7.24,7.24,0,0,0-7.23,7.23V46.61a68.43,68.43,0,0,0-12,5l-10.5-10.51a7.2,7.2,0,0,0-5.11-2.12,7.2,7.2,0,0,0-5.11,2.11l-18.53,18.51a7.26,7.26,0,0,0-2.11,5.12,7.24,7.24,0,0,0,2.11,5.11l10.51,10.51a69.18,69.18,0,0,0-5,12h-14.85a7.23,7.23,0,0,0-7.23,7.24v26.19a7.23,7.23,0,0,0,7.23,7.23Z" transform="translate(1541.71 -24.52)" style="fill:#fff"/><path d="M-1292.74,273.15a37.23,37.23,0,0,0,19.54-32.63,37.4,37.4,0,0,0-37.36-37.35,37,37,0,0,0-19.69,5.75,134.54,134.54,0,0,1-15.91,38.1A111.89,111.89,0,0,1-1292.74,273.15Z" transform="translate(1541.71 -24.52)" style="fill:#fff"/><path d="M-1215.44,226.39a7.81,7.81,0,0,0-7.8-7.8h-16a74,74,0,0,0-5.4-13l11.35-11.35a7.75,7.75,0,0,0,2.29-5.51,7.78,7.78,0,0,0-2.29-5.52l-20-20a7.77,7.77,0,0,0-5.52-2.29,7.75,7.75,0,0,0-5.51,2.29l-11.37,11.35a72.87,72.87,0,0,0-13-5.38v-16a7.79,7.79,0,0,0-7.79-7.8h-28.26a7.69,7.69,0,0,0-4.92,1.88,106.25,106.25,0,0,1,3.68,28.14,135.25,135.25,0,0,1-1.43,19.29,48.3,48.3,0,0,1,16.79-3.16,49,49,0,0,1,49,49,48.86,48.86,0,0,1-22.53,41.09,111.63,111.63,0,0,1,22.75,37.94,8,8,0,0,0,2.58.5,7.79,7.79,0,0,0,5.52-2.28l20-20a7.78,7.78,0,0,0,2.27-5.51,7.8,7.8,0,0,0-2.27-5.52l-11.37-11.35a73.7,73.7,0,0,0,5.4-13h16a7.76,7.76,0,0,0,5.52-2.29,7.79,7.79,0,0,0,2.29-5.51Z" transform="translate(1541.71 -24.52)" style="fill:#fff"/><path d="M-1277.29,326.62a94.41,94.41,0,0,0-81.1-63.51c-12.38,13.11-27.7,21.42-45.06,21.42s-32.68-8.31-45-21.42a94.42,94.42,0,0,0-81.12,63.52l-6.7,19.72a18.6,18.6,0,0,0,2.49,16.79,18.58,18.58,0,0,0,15.1,7.76h230.53a18.59,18.59,0,0,0,15.11-7.76,18.59,18.59,0,0,0,2.48-16.79Z" transform="translate(1541.71 -24.52)" style="fill:#fff"/><path d="M-1463.55,175.44c0,44.22,26.92,91.67,60.11,91.67s60.12-47.45,60.12-91.67C-1343.33,83.78-1463.55,83.6-1463.55,175.44Z" transform="translate(1541.71 -24.52)" style="fill:#fff"/></svg>