<svg id="Layer_1" data-name="Layer 1" xmlns="http://www.w3.org/2000/svg" xmlns:xlink="http://www.w3.org/1999/xlink" viewBox="0 0 351.97 347.3"><defs><clipPath id="clip-path" transform="translate(1096.99 -996.65)"><polygon points="-1051.05 1204.84 -1005.63 1178.62 -1005.63 1127.65 -1095.19 1179.35 -1095.19 1285.86 -1051.05 1260.43 -1051.05 1204.84" style="fill:none"/></clipPath><clipPath id="clip-path-2" transform="translate(1096.99 -996.65)"><polygon points="-1002.51 1290.59 -1045.61 1265.71 -1089.79 1291.17 -1002.51 1341.57 -957.93 1315.83 -1001.82 1290.96 -1002.51 1290.59" style="fill:none"/></clipPath><clipPath id="clip-path-3" transform="translate(1096.99 -996.65)"><polygon points="-923.31 1280.25 -965.87 1253.85 -1000.56 1232.32 -1000.59 1273.06 -999.87 1273.48 -955.98 1299.11 -909.69 1326.14 -909.69 1288.7 -923.31 1280.25" style="fill:none"/></clipPath><clipPath id="clip-path-4" transform="translate(1096.99 -996.65)"><polygon points="-953.38 1204.84 -953.38 1244.81 -909.24 1271.79 -909.24 1179.35 -998.79 1127.65 -998.79 1178.62 -953.38 1204.84" style="fill:none"/></clipPath></defs><title>QNT Upgrade</title><g style="clip-path:url(#clip-path)"><rect y="129.2" width="93.15" height="161.81" style="fill:#fff"/></g><g style="clip-path:url(#clip-path-2)"><rect x="5.4" y="267.27" width="135.45" height="79.45" style="fill:#fff"/></g><g style="clip-path:url(#clip-path-3)"><rect x="94.6" y="233.87" width="94.49" height="97.42" style="fill:#fff"/></g><g style="clip-path:url(#clip-path-4)"><rect x="96.4" y="129.2" width="93.14" height="147.74" style="fill:#fff"/></g><g id="file-upload"><polygon points="221.72 218.34 299.87 218.34 299.87 117.57 351.97 117.57 260.79 0 169.62 117.57 221.72 117.57 221.72 218.34" style="fill:#fff"/></g><rect x="221.56" y="231.06" width="78.42" height="20.83" style="fill:#fff"/><rect x="221.56" y="261.99" width="78.42" height="20.83" style="fill:#fff"/><rect x="221.56" y="294.74" width="78.42" height="20.83" style="fill:#fff"/><rect x="221.56" y="326.47" width="78.42" height="20.83" style="fill:#fff"/></svg>