<?xml version="1.0" encoding="UTF-8"?>
<svg width="26px" height="30px" viewBox="0 0 26 30" version="1.1" xmlns="http://www.w3.org/2000/svg" xmlns:xlink="http://www.w3.org/1999/xlink">
    <!-- Generator: Sketch 49.1 (51147) - http://www.bohemiancoding.com/sketch -->
    <title>QNT-U</title>
    <desc>Created with Sketch.</desc>
    <defs>
        <linearGradient x1="77.7518297%" y1="76.4375964%" x2="29.6008282%" y2="30.5679496%" id="linearGradient-1">
            <stop stop-color="#00469D" offset="0%"></stop>
            <stop stop-color="#FABF00" offset="100%"></stop>
        </linearGradient>
    </defs>
    <g id="Hi-Fi" stroke="none" stroke-width="1" fill="none" fill-rule="evenodd">
        <g id="Choose-asset" transform="translate(-340.000000, -331.000000)" fill="url(#linearGradient-1)" fill-rule="nonzero">
            <g id="QNT-U" transform="translate(340.683273, 331.754650)">
                <polygon id="Shape" points="22.0911887 20.008595 12.2102998 25.7724343 2.32941101 20.008595 2.32941101 13.9406142 5.4178502 12.1389318 5.4178502 18.7332201 12.2785007 22.7351767 19.0027495 18.8128197 19.0027495 12.1478422 22.0911887 13.9495246 22.0911887 13.9495246 24.4205997 15.3086573 24.4205997 14.8952148 24.4205997 12.5814815 24.4205997 9.85489985 24.4205997 7.12237789 12.2102998 0 0 7.12237789 0 9.84658348 2.32941101 8.48745082 2.32941101 8.48151055 12.2102998 2.7176713 22.0911887 8.48151055 22.0911887 8.49636121 22.0911887 11.2229429 19.0027495 9.4212605 16.6445295 8.04608912 16.6445295 10.7720768 16.6445295 17.4370543 12.2785007 19.9842399 7.77548225 17.3580487 7.77548225 10.7637604 7.77548225 8.03717872 5.4178502 9.41294412 2.32941101 11.2140325 2.32941101 11.2140325 0 12.5731652 0 21.3677277 12.2102998 28.4906996 24.4205997 21.3677277 24.4205997 18.0494956 22.0911887 16.690957"></polygon>
            </g>
        </g>
    </g>
</svg>