<?xml version="1.0" encoding="UTF-8"?>
<svg width="13px" height="12px" viewBox="0 0 13 12" version="1.1" xmlns="http://www.w3.org/2000/svg" xmlns:xlink="http://www.w3.org/1999/xlink">
    <!-- Generator: Sketch 49.1 (51147) - http://www.bohemiancoding.com/sketch -->
    <title>Page 1</title>
    <desc>Created with Sketch.</desc>
    <defs></defs>
    <g id="Hi-Fi" stroke="none" stroke-width="1" fill="none" fill-rule="evenodd" stroke-linecap="round" stroke-linejoin="round">
        <g id="Transaction" transform="translate(-27.000000, -252.000000)">
            <g id="Page-1" transform="translate(27.000000, 252.000000)">
                <path d="M7.6821,5.868 C7.6821,6.949 6.8061,7.825 5.7251,7.825 C4.6441,7.825 3.7671,6.949 3.7671,5.868 C3.7671,4.787 4.6441,3.911 5.7251,3.911 C6.8061,3.911 7.6821,4.787 7.6821,5.868 Z" id="Stroke-1" stroke="#0F62AE"></path>
                <path d="M10.7455,8.1122 C10.5285,8.5842 10.2385,9.0322 9.8745,9.4402 C7.9015,11.6532 4.5085,11.8472 2.2955,9.8742 C0.0825,7.9012 -0.1115,4.5082 1.8615,2.2962 C3.8345,0.0832 7.2275,-0.1118 9.4405,1.8612 C10.1565,2.5012 10.6615,3.2882 10.9505,4.1362" id="Stroke-3" stroke="#EE8522"></path>
                <polyline id="Stroke-5" stroke="#EE8522" points="11.7778 2.6258 11.1858 4.7388 9.1498 4.1688"></polyline>
            </g>
        </g>
    </g>
</svg>