<?xml version="1.0" encoding="UTF-8"?>
<svg width="94px" height="63px" viewBox="0 0 94 63" version="1.1" xmlns="http://www.w3.org/2000/svg" xmlns:xlink="http://www.w3.org/1999/xlink">
    <!-- Generator: Sketch 49.1 (51147) - http://www.bohemiancoding.com/sketch -->
    <title>Page 1</title>
    <desc>Created with Sketch.</desc>
    <defs></defs>
    <g id="Hi-Fi" stroke="none" stroke-width="1" fill="none" fill-rule="evenodd">
        <g id="Transaction-Send-03" transform="translate(-549.000000, -248.000000)">
            <g id="Page-1" transform="translate(551.539062, 250.000000)">
                <path d="M64.1797,10.5725 L21.0457,10.5725 C18.8367,10.5725 17.0457,8.7815 17.0457,6.5725 L17.0457,4.0005 C17.0457,1.7915 18.8367,0.0005 21.0457,0.0005 L64.1797,0.0005 C66.3887,0.0005 68.1797,1.7915 68.1797,4.0005 L68.1797,6.5725 C68.1797,8.7815 66.3887,10.5725 64.1797,10.5725 Z" id="Stroke-1" stroke="#E7EAF3" stroke-width="4" stroke-linecap="round" stroke-linejoin="round"></path>
                <path d="M51.3955,21.1457 L8.2615,21.1457 C6.0525,21.1457 4.2615,19.3547 4.2615,17.1457 L4.2615,14.5727 C4.2615,12.3637 6.0525,10.5727 8.2615,10.5727 L51.3955,10.5727 C53.6045,10.5727 55.3955,12.3637 55.3955,14.5727 L55.3955,17.1457 C55.3955,19.3547 53.6045,21.1457 51.3955,21.1457 Z" id="Stroke-3" stroke="#E7EAF3" stroke-width="4" stroke-linecap="round" stroke-linejoin="round"></path>
                <path d="M55.3291,31.718 L12.1951,31.718 C9.9861,31.718 8.1951,29.928 8.1951,27.718 L8.1951,25.146 C8.1951,22.937 9.9861,21.146 12.1951,21.146 L55.3291,21.146 C57.5381,21.146 59.3291,22.937 59.3291,25.146 L59.3291,27.718 C59.3291,29.928 57.5381,31.718 55.3291,31.718 Z" id="Stroke-5" stroke="#E7EAF3" stroke-width="4" stroke-linecap="round" stroke-linejoin="round"></path>
                <path d="M47.1343,42.2912 L4.0003,42.2912 C1.7913,42.2912 0.0003,40.5002 0.0003,38.2912 L0.0003,35.7182 C0.0003,33.5092 1.7913,31.7182 4.0003,31.7182 L47.1343,31.7182 C49.3433,31.7182 51.1343,33.5092 51.1343,35.7182 L51.1343,38.2912 C51.1343,40.5002 49.3433,42.2912 47.1343,42.2912 Z" id="Stroke-7" stroke="#E7EAF3" stroke-width="4" stroke-linecap="round" stroke-linejoin="round"></path>
                <path d="M55.3291,52.8645 L12.1951,52.8645 C9.9861,52.8645 8.1951,51.0735 8.1951,48.8645 L8.1951,46.2915 C8.1951,44.0825 9.9861,42.2915 12.1951,42.2915 L55.3291,42.2915 C57.5381,42.2915 59.3291,44.0825 59.3291,46.2915 L59.3291,48.8645 C59.3291,51.0735 57.5381,52.8645 55.3291,52.8645 Z" id="Stroke-9" stroke="#E7EAF3" stroke-width="4" stroke-linecap="round" stroke-linejoin="round"></path>
                <path d="M89.3086,31.718 C89.3086,46.571 77.2686,58.611 62.4166,58.611 C47.5646,58.611 35.5246,46.571 35.5246,31.718 C35.5246,16.866 47.5646,4.826 62.4166,4.826 C77.2686,4.826 89.3086,16.866 89.3086,31.718" id="Fill-11" fill="#FFFFFF"></path>
                <path d="M89.3086,31.718 C89.3086,46.571 77.2686,58.611 62.4166,58.611 C47.5646,58.611 35.5246,46.571 35.5246,31.718 C35.5246,16.866 47.5646,4.826 62.4166,4.826 C77.2686,4.826 89.3086,16.866 89.3086,31.718 Z" id="Stroke-13" stroke="#3C763D" stroke-width="4" stroke-linecap="round" stroke-linejoin="round"></path>
                <g id="Group-18" transform="translate(52.000000, 22.610500)">
                    <polyline id="Fill-15" fill="#FFFFFF" points="0.9107 11.8428 6.4767 17.4078 23.0777 0.8078"></polyline>
                    <polyline id="Stroke-17" stroke="#3C763D" stroke-width="4" stroke-linecap="round" stroke-linejoin="round" points="0.9107 11.8428 6.4767 17.4078 23.0777 0.8078"></polyline>
                </g>
            </g>
        </g>
    </g>
</svg>